<mxfile host="Electron" modified="2023-07-29T09:23:09.484Z" agent="Mozilla/5.0 (Windows NT 10.0; Win64; x64) AppleWebKit/537.36 (KHTML, like Gecko) draw.io/21.6.5 Chrome/114.0.5735.243 Electron/25.3.1 Safari/537.36" etag="Q5rVtfWZlAIfU3T8W3I7" version="21.6.5" type="device" pages="3">
  <diagram name="Trang-1" id="iFU0MZHla55vpfrF85uT">
    <mxGraphModel dx="2680" dy="1734" grid="0" gridSize="10" guides="1" tooltips="1" connect="1" arrows="1" fold="1" page="0" pageScale="1" pageWidth="827" pageHeight="1169" math="0" shadow="0">
      <root>
        <mxCell id="0" />
        <mxCell id="1" parent="0" />
        <mxCell id="gDpafScgUw4IIOWztnrJ-9" style="rounded=0;orthogonalLoop=1;jettySize=auto;html=1;entryX=0.5;entryY=1;entryDx=0;entryDy=0;exitX=0.5;exitY=0;exitDx=0;exitDy=0;fontSize=14;" parent="1" source="tlnyBGycdhl3UOv0Z1U2-16" target="tlnyBGycdhl3UOv0Z1U2-31" edge="1">
          <mxGeometry relative="1" as="geometry">
            <mxPoint x="347.4074074074074" y="430" as="sourcePoint" />
            <mxPoint x="356.36363636363626" y="360" as="targetPoint" />
          </mxGeometry>
        </mxCell>
        <mxCell id="tlnyBGycdhl3UOv0Z1U2-11" style="rounded=0;orthogonalLoop=1;jettySize=auto;html=1;entryX=1;entryY=0.5;entryDx=0;entryDy=0;exitX=0;exitY=0.5;exitDx=0;exitDy=0;fontSize=14;" parent="1" source="tlnyBGycdhl3UOv0Z1U2-17" target="tlnyBGycdhl3UOv0Z1U2-13" edge="1">
          <mxGeometry relative="1" as="geometry">
            <mxPoint x="313.80645161290295" y="470" as="sourcePoint" />
          </mxGeometry>
        </mxCell>
        <mxCell id="gDpafScgUw4IIOWztnrJ-11" style="rounded=0;orthogonalLoop=1;jettySize=auto;html=1;exitX=0.5;exitY=0;exitDx=0;exitDy=0;entryX=0.5;entryY=1;entryDx=0;entryDy=0;fontSize=14;" parent="1" source="tlnyBGycdhl3UOv0Z1U2-18" target="tlnyBGycdhl3UOv0Z1U2-13" edge="1">
          <mxGeometry relative="1" as="geometry">
            <mxPoint x="493.6071428571431" y="542" as="sourcePoint" />
            <mxPoint x="373.3928571428569" y="470" as="targetPoint" />
          </mxGeometry>
        </mxCell>
        <mxCell id="tlnyBGycdhl3UOv0Z1U2-1" value="&lt;b style=&quot;&quot;&gt;&lt;font style=&quot;font-size: 18px;&quot;&gt;Users&lt;/font&gt;&lt;/b&gt;" style="swimlane;childLayout=stackLayout;horizontal=1;startSize=50;horizontalStack=0;rounded=1;fontSize=14;fontStyle=0;strokeWidth=2;resizeParent=0;resizeLast=1;shadow=0;dashed=0;align=center;arcSize=4;whiteSpace=wrap;html=1;fillColor=#d5e8d4;strokeColor=#82b366;" parent="1" vertex="1">
          <mxGeometry x="809" y="711" width="653" height="240" as="geometry" />
        </mxCell>
        <mxCell id="tlnyBGycdhl3UOv0Z1U2-2" value="&lt;div style=&quot;border-color: var(--border-color); font-size: 14px; line-height: 150%;&quot;&gt;&lt;div style=&quot;border-color: var(--border-color); line-height: 150%;&quot;&gt;&amp;nbsp; &lt;b&gt;&lt;u&gt;user_id &lt;/u&gt;&lt;/b&gt;INT PRIMARY KEY AUTO_INCREMENT,&lt;/div&gt;&lt;div style=&quot;border-color: var(--border-color); line-height: 150%;&quot;&gt;&amp;nbsp; username VARCHAR(255) NOT NULL,&lt;/div&gt;&lt;div style=&quot;border-color: var(--border-color); line-height: 150%;&quot;&gt;&amp;nbsp; email VARCHAR(255) NOT NULL,&lt;/div&gt;&lt;div style=&quot;border-color: var(--border-color); line-height: 150%;&quot;&gt;&amp;nbsp; password_hash VARCHAR(255) NOT NULL,&lt;/div&gt;&lt;div style=&quot;border-color: var(--border-color); line-height: 150%;&quot;&gt;&amp;nbsp; role VARCHAR(50) NOT NULL,&lt;/div&gt;&lt;div style=&quot;border-color: var(--border-color); line-height: 150%;&quot;&gt;&amp;nbsp; is_active BOOLEAN NOT NULL DEFAULT true,&lt;/div&gt;&lt;div style=&quot;border-color: var(--border-color); line-height: 150%;&quot;&gt;&amp;nbsp; created_at TIMESTAMP DEFAULT CURRENT_TIMESTAMP,&lt;/div&gt;&lt;div style=&quot;border-color: var(--border-color); line-height: 150%;&quot;&gt;&amp;nbsp; updated_at TIMESTAMP DEFAULT CURRENT_TIMESTAMP ON UPDATE CURRENT_TIMESTAMP&lt;/div&gt;&lt;/div&gt;" style="align=left;strokeColor=none;fillColor=none;spacingLeft=4;fontSize=14;verticalAlign=top;resizable=0;rotatable=0;part=1;html=1;" parent="tlnyBGycdhl3UOv0Z1U2-1" vertex="1">
          <mxGeometry y="50" width="653" height="190" as="geometry" />
        </mxCell>
        <mxCell id="tlnyBGycdhl3UOv0Z1U2-10" style="rounded=0;orthogonalLoop=1;jettySize=auto;html=1;entryX=0.5;entryY=1;entryDx=0;entryDy=0;fontSize=14;endArrow=ERmandOne;endFill=0;startArrow=ERoneToMany;startFill=0;exitX=0.75;exitY=0;exitDx=0;exitDy=0;" parent="1" source="tlnyBGycdhl3UOv0Z1U2-3" target="tlnyBGycdhl3UOv0Z1U2-9" edge="1">
          <mxGeometry relative="1" as="geometry" />
        </mxCell>
        <mxCell id="tlnyBGycdhl3UOv0Z1U2-3" value="&lt;b style=&quot;&quot;&gt;&lt;font style=&quot;font-size: 18px;&quot;&gt;Menus&lt;/font&gt;&lt;/b&gt;" style="swimlane;childLayout=stackLayout;horizontal=1;startSize=50;horizontalStack=0;rounded=1;fontSize=14;fontStyle=0;strokeWidth=2;resizeParent=0;resizeLast=1;shadow=0;dashed=0;align=center;arcSize=4;whiteSpace=wrap;html=1;fillColor=#d5e8d4;strokeColor=#82b366;" parent="1" vertex="1">
          <mxGeometry x="389" y="35" width="437" height="126" as="geometry" />
        </mxCell>
        <mxCell id="tlnyBGycdhl3UOv0Z1U2-4" value="&lt;div style=&quot;border-color: var(--border-color); font-size: 14px;&quot;&gt;&lt;div style=&quot;border-color: var(--border-color); font-size: 14px;&quot;&gt;&lt;div style=&quot;border-color: var(--border-color); font-size: 14px;&quot;&gt;&lt;u style=&quot;font-size: 14px;&quot;&gt;&lt;b style=&quot;font-size: 14px;&quot;&gt;menu_id &lt;/b&gt;&lt;/u&gt;(Primary Key): Unique identifier for each menu item.&lt;/div&gt;&lt;div style=&quot;border-color: var(--border-color); font-size: 14px;&quot;&gt;name: Name of the menu item (e.g., fried chicken, shrimp soup, etc.).&lt;/div&gt;&lt;div style=&quot;border-color: var(--border-color); font-size: 14px;&quot;&gt;description: Description of the menu item.&lt;/div&gt;&lt;div style=&quot;border-color: var(--border-color); font-size: 14px;&quot;&gt;category_id: Ref&lt;/div&gt;&lt;/div&gt;&lt;/div&gt;" style="align=left;strokeColor=none;fillColor=none;spacingLeft=4;fontSize=14;verticalAlign=top;resizable=0;rotatable=0;part=1;html=1;" parent="tlnyBGycdhl3UOv0Z1U2-3" vertex="1">
          <mxGeometry y="50" width="437" height="76" as="geometry" />
        </mxCell>
        <mxCell id="tlnyBGycdhl3UOv0Z1U2-6" value="&lt;b style=&quot;&quot;&gt;&lt;font style=&quot;font-size: 18px;&quot;&gt;Tables&lt;/font&gt;&lt;/b&gt;" style="swimlane;childLayout=stackLayout;horizontal=1;startSize=50;horizontalStack=0;rounded=1;fontSize=14;fontStyle=0;strokeWidth=2;resizeParent=0;resizeLast=1;shadow=0;dashed=0;align=center;arcSize=4;whiteSpace=wrap;html=1;fillColor=#d5e8d4;strokeColor=#82b366;" parent="1" vertex="1">
          <mxGeometry x="-36" y="713" width="658" height="175" as="geometry" />
        </mxCell>
        <mxCell id="tlnyBGycdhl3UOv0Z1U2-7" value="&lt;div style=&quot;border-color: var(--border-color); font-size: 14px;&quot;&gt;&lt;div style=&quot;border-color: var(--border-color); font-size: 14px;&quot;&gt;&lt;div style=&quot;border-color: var(--border-color);&quot;&gt;&lt;span style=&quot;background-color: initial;&quot;&gt;&amp;nbsp; table_id INT PRIMARY KEY AUTO_INCREMENT,&lt;/span&gt;&lt;br&gt;&lt;/div&gt;&lt;div style=&quot;border-color: var(--border-color);&quot;&gt;&amp;nbsp; table_number INT NOT NULL,&lt;/div&gt;&lt;div style=&quot;border-color: var(--border-color);&quot;&gt;&amp;nbsp; status ENUM(&#39;occupied&#39;, &#39;available&#39;, &#39;reserved&#39;) NOT NULL,&lt;/div&gt;&lt;div style=&quot;border-color: var(--border-color);&quot;&gt;&amp;nbsp; occupied_since TIMESTAMP NULL,&lt;/div&gt;&lt;div style=&quot;border-color: var(--border-color);&quot;&gt;&amp;nbsp; created_at TIMESTAMP DEFAULT CURRENT_TIMESTAMP,&lt;/div&gt;&lt;div style=&quot;border-color: var(--border-color);&quot;&gt;&amp;nbsp; updated_at TIMESTAMP DEFAULT CURRENT_TIMESTAMP ON UPDATE CURRENT_TIMESTAMP&lt;/div&gt;&lt;/div&gt;&lt;/div&gt;" style="align=left;strokeColor=none;fillColor=none;spacingLeft=4;fontSize=14;verticalAlign=top;resizable=0;rotatable=0;part=1;html=1;" parent="tlnyBGycdhl3UOv0Z1U2-6" vertex="1">
          <mxGeometry y="50" width="658" height="125" as="geometry" />
        </mxCell>
        <mxCell id="4KZed-9JrN03BDow-iql-5" style="rounded=0;orthogonalLoop=1;jettySize=auto;html=1;entryX=0.5;entryY=1;entryDx=0;entryDy=0;" edge="1" parent="1" source="tlnyBGycdhl3UOv0Z1U2-8" target="4KZed-9JrN03BDow-iql-2">
          <mxGeometry relative="1" as="geometry" />
        </mxCell>
        <mxCell id="tlnyBGycdhl3UOv0Z1U2-8" value="&lt;b style=&quot;&quot;&gt;&lt;font style=&quot;font-size: 18px;&quot;&gt;Menus_Categories&lt;/font&gt;&lt;/b&gt;" style="swimlane;childLayout=stackLayout;horizontal=1;startSize=50;horizontalStack=0;rounded=1;fontSize=14;fontStyle=0;strokeWidth=2;resizeParent=0;resizeLast=1;shadow=0;dashed=0;align=center;arcSize=4;whiteSpace=wrap;html=1;fillColor=#d5e8d4;strokeColor=#82b366;" parent="1" vertex="1">
          <mxGeometry x="683" y="-174" width="231" height="123" as="geometry" />
        </mxCell>
        <mxCell id="tlnyBGycdhl3UOv0Z1U2-9" value="&lt;div style=&quot;border-color: var(--border-color); font-size: 14px;&quot;&gt;&lt;div style=&quot;border-color: var(--border-color); font-size: 14px;&quot;&gt;&lt;span style=&quot;background-color: initial; font-size: 14px;&quot;&gt;&lt;u style=&quot;font-size: 14px;&quot;&gt;&lt;b style=&quot;font-size: 14px;&quot;&gt;menu_category_id (Primary Key)&lt;/b&gt;&lt;/u&gt;&lt;/span&gt;&lt;br style=&quot;font-size: 14px;&quot;&gt;&lt;/div&gt;&lt;div style=&quot;border-color: var(--border-color); font-size: 14px;&quot;&gt;menu_id&lt;/div&gt;&lt;div style=&quot;border-color: var(--border-color); font-size: 14px;&quot;&gt;category_id&lt;/div&gt;&lt;/div&gt;" style="align=left;strokeColor=none;fillColor=none;spacingLeft=4;fontSize=14;verticalAlign=top;resizable=0;rotatable=0;part=1;html=1;" parent="tlnyBGycdhl3UOv0Z1U2-8" vertex="1">
          <mxGeometry y="50" width="231" height="73" as="geometry" />
        </mxCell>
        <mxCell id="tlnyBGycdhl3UOv0Z1U2-27" style="rounded=0;orthogonalLoop=1;jettySize=auto;html=1;fontSize=14;" parent="1" source="tlnyBGycdhl3UOv0Z1U2-12" target="tlnyBGycdhl3UOv0Z1U2-6" edge="1">
          <mxGeometry relative="1" as="geometry" />
        </mxCell>
        <mxCell id="tlnyBGycdhl3UOv0Z1U2-12" value="&lt;b style=&quot;&quot;&gt;&lt;font style=&quot;font-size: 18px;&quot;&gt;Orders&lt;/font&gt;&lt;/b&gt;" style="swimlane;childLayout=stackLayout;horizontal=1;startSize=50;horizontalStack=0;rounded=1;fontSize=14;fontStyle=0;strokeWidth=2;resizeParent=0;resizeLast=1;shadow=0;dashed=0;align=center;arcSize=4;whiteSpace=wrap;html=1;fillColor=#d5e8d4;strokeColor=#82b366;" parent="1" vertex="1">
          <mxGeometry x="-426" y="274" width="446" height="147" as="geometry" />
        </mxCell>
        <mxCell id="tlnyBGycdhl3UOv0Z1U2-13" value="&lt;div style=&quot;border-color: var(--border-color); font-size: 14px;&quot;&gt;&lt;div style=&quot;border-color: var(--border-color); font-size: 14px;&quot;&gt;&lt;div style=&quot;border-color: var(--border-color); font-size: 14px;&quot;&gt;&lt;div style=&quot;border-color: var(--border-color);&quot;&gt;&amp;nbsp;&amp;nbsp;&lt;b&gt;&lt;u&gt;order_id &lt;/u&gt;&lt;/b&gt;INT PRIMARY KEY AUTO_INCREMENT,&lt;/div&gt;&lt;div style=&quot;border-color: var(--border-color);&quot;&gt;&amp;nbsp; &lt;u&gt;table_id &lt;/u&gt;INT NOT NULL,&lt;/div&gt;&lt;div style=&quot;border-color: var(--border-color);&quot;&gt;&amp;nbsp; order_status ENUM(&#39;in progress&#39;, &#39;delivered&#39;, &#39;paid&#39;) NOT NULL,&lt;/div&gt;&lt;div style=&quot;border-color: var(--border-color);&quot;&gt;&amp;nbsp; order_timestamp TIMESTAMP DEFAULT CURRENT_TIMESTAMP,&lt;/div&gt;&lt;/div&gt;&lt;/div&gt;&lt;/div&gt;" style="align=left;strokeColor=none;fillColor=none;spacingLeft=4;fontSize=14;verticalAlign=top;resizable=0;rotatable=0;part=1;html=1;" parent="tlnyBGycdhl3UOv0Z1U2-12" vertex="1">
          <mxGeometry y="50" width="446" height="97" as="geometry" />
        </mxCell>
        <mxCell id="tlnyBGycdhl3UOv0Z1U2-16" value="&lt;b style=&quot;&quot;&gt;&lt;font style=&quot;font-size: 18px;&quot;&gt;Orders_Menus&lt;/font&gt;&lt;/b&gt;" style="swimlane;childLayout=stackLayout;horizontal=1;startSize=50;horizontalStack=0;rounded=1;fontSize=14;fontStyle=0;strokeWidth=2;resizeParent=0;resizeLast=1;shadow=0;dashed=0;align=center;arcSize=4;whiteSpace=wrap;html=1;fillColor=#d5e8d4;strokeColor=#82b366;" parent="1" vertex="1">
          <mxGeometry x="126" y="250" width="410" height="234" as="geometry" />
        </mxCell>
        <mxCell id="tlnyBGycdhl3UOv0Z1U2-17" value="&lt;div style=&quot;border-color: var(--border-color); font-size: 14px;&quot;&gt;&lt;div style=&quot;border-color: var(--border-color); font-size: 14px;&quot;&gt;&lt;div style=&quot;border-color: var(--border-color); font-size: 14px;&quot;&gt;&lt;div style=&quot;border-color: var(--border-color); font-size: 14px;&quot;&gt;&lt;span style=&quot;background-color: initial; font-size: 14px;&quot;&gt;&lt;b style=&quot;font-size: 14px;&quot;&gt;order_item_id (Primary Key)&lt;/b&gt;&lt;/span&gt;&lt;br style=&quot;font-size: 14px;&quot;&gt;&lt;/div&gt;&lt;div style=&quot;border-color: var(--border-color); font-size: 14px;&quot;&gt;&lt;u style=&quot;font-size: 14px;&quot;&gt;+ order_id &lt;/u&gt;(Foreign Key):&amp;nbsp;&lt;/div&gt;&lt;div style=&quot;border-color: var(--border-color); font-size: 14px;&quot;&gt;References the order_id of the order to which the item belongs.&lt;/div&gt;&lt;div style=&quot;border-color: var(--border-color); font-size: 14px;&quot;&gt;&lt;u style=&quot;font-size: 14px;&quot;&gt;+ menu_item_id &lt;/u&gt;(Foreign Key):&amp;nbsp;&lt;/div&gt;&lt;div style=&quot;border-color: var(--border-color); font-size: 14px;&quot;&gt;References the item_id of the menu item in the order.&lt;/div&gt;&lt;div style=&quot;border-color: var(--border-color); font-size: 14px;&quot;&gt;+ quantity:&amp;nbsp;&lt;/div&gt;&lt;div style=&quot;border-color: var(--border-color); font-size: 14px;&quot;&gt;Quantity of the menu item ordered.&lt;/div&gt;&lt;div style=&quot;border-color: var(--border-color); font-size: 14px;&quot;&gt;+ notes:&amp;nbsp;&lt;/div&gt;&lt;div style=&quot;border-color: var(--border-color); font-size: 14px;&quot;&gt;Additional notes or special requests for the item.&lt;/div&gt;&lt;/div&gt;&lt;/div&gt;&lt;/div&gt;" style="align=left;strokeColor=none;fillColor=none;spacingLeft=4;fontSize=14;verticalAlign=top;resizable=0;rotatable=0;part=1;html=1;" parent="tlnyBGycdhl3UOv0Z1U2-16" vertex="1">
          <mxGeometry y="50" width="410" height="184" as="geometry" />
        </mxCell>
        <mxCell id="tlnyBGycdhl3UOv0Z1U2-18" value="&lt;b style=&quot;&quot;&gt;&lt;font style=&quot;font-size: 18px;&quot;&gt;Payments&lt;/font&gt;&lt;/b&gt;" style="swimlane;childLayout=stackLayout;horizontal=1;startSize=50;horizontalStack=0;rounded=1;fontSize=14;fontStyle=0;strokeWidth=2;resizeParent=0;resizeLast=1;shadow=0;dashed=0;align=center;arcSize=4;whiteSpace=wrap;html=1;fillColor=#d5e8d4;strokeColor=#82b366;" parent="1" vertex="1">
          <mxGeometry x="-646" y="683" width="433" height="225" as="geometry" />
        </mxCell>
        <mxCell id="tlnyBGycdhl3UOv0Z1U2-19" value="&lt;div style=&quot;border-color: var(--border-color); font-size: 14px;&quot;&gt;&lt;div style=&quot;border-color: var(--border-color); font-size: 14px;&quot;&gt;&lt;div style=&quot;border-color: var(--border-color); font-size: 14px;&quot;&gt;&lt;div style=&quot;border-color: var(--border-color); font-size: 14px;&quot;&gt;&lt;div style=&quot;border-color: var(--border-color); font-size: 14px;&quot;&gt;+ &lt;u style=&quot;font-size: 14px;&quot;&gt;&lt;b style=&quot;font-size: 14px;&quot;&gt;payment_id &lt;/b&gt;&lt;/u&gt;(Primary Key)&lt;/div&gt;&lt;div style=&quot;border-color: var(--border-color); font-size: 14px;&quot;&gt;+ &lt;u style=&quot;font-size: 14px;&quot;&gt;order_id &lt;/u&gt;(Foreign Key):&amp;nbsp;&lt;/div&gt;&lt;div style=&quot;border-color: var(--border-color); font-size: 14px;&quot;&gt;References the order_id of the order for which the payment is made.&lt;/div&gt;&lt;div style=&quot;border-color: var(--border-color); font-size: 14px;&quot;&gt;+ payment_amount:&amp;nbsp;&lt;/div&gt;&lt;div style=&quot;border-color: var(--border-color); font-size: 14px;&quot;&gt;Amount paid for the order.&lt;/div&gt;&lt;div style=&quot;border-color: var(--border-color); font-size: 14px;&quot;&gt;+ payment_method:&amp;nbsp;&lt;/div&gt;&lt;div style=&quot;border-color: var(--border-color); font-size: 14px;&quot;&gt;Method of payment (e.g., cash, credit card, mobile payment).&lt;/div&gt;&lt;div style=&quot;border-color: var(--border-color); font-size: 14px;&quot;&gt;+ payment_timestamp:&amp;nbsp;&lt;/div&gt;&lt;div style=&quot;border-color: var(--border-color); font-size: 14px;&quot;&gt;Timestamp when the payment was made.&lt;/div&gt;&lt;/div&gt;&lt;/div&gt;&lt;/div&gt;&lt;/div&gt;" style="align=left;strokeColor=none;fillColor=none;spacingLeft=4;fontSize=14;verticalAlign=top;resizable=0;rotatable=0;part=1;html=1;rounded=0;" parent="tlnyBGycdhl3UOv0Z1U2-18" vertex="1">
          <mxGeometry y="50" width="433" height="175" as="geometry" />
        </mxCell>
        <mxCell id="tlnyBGycdhl3UOv0Z1U2-24" style="rounded=0;orthogonalLoop=1;jettySize=auto;html=1;entryX=0.25;entryY=0;entryDx=0;entryDy=0;fontSize=14;" parent="1" source="tlnyBGycdhl3UOv0Z1U2-20" target="tlnyBGycdhl3UOv0Z1U2-1" edge="1">
          <mxGeometry relative="1" as="geometry" />
        </mxCell>
        <mxCell id="tlnyBGycdhl3UOv0Z1U2-25" style="edgeStyle=orthogonalEdgeStyle;rounded=0;orthogonalLoop=1;jettySize=auto;html=1;entryX=1;entryY=0.5;entryDx=0;entryDy=0;exitX=0.25;exitY=1;exitDx=0;exitDy=0;fontSize=14;" parent="1" source="tlnyBGycdhl3UOv0Z1U2-21" target="tlnyBGycdhl3UOv0Z1U2-7" edge="1">
          <mxGeometry relative="1" as="geometry" />
        </mxCell>
        <mxCell id="tlnyBGycdhl3UOv0Z1U2-20" value="&lt;b style=&quot;&quot;&gt;&lt;font style=&quot;font-size: 18px;&quot;&gt;Reservation&lt;/font&gt;&lt;/b&gt;" style="swimlane;childLayout=stackLayout;horizontal=1;startSize=50;horizontalStack=0;rounded=1;fontSize=14;fontStyle=0;strokeWidth=2;resizeParent=0;resizeLast=1;shadow=0;dashed=0;align=center;arcSize=4;whiteSpace=wrap;html=1;fillColor=#d5e8d4;strokeColor=#82b366;" parent="1" vertex="1">
          <mxGeometry x="617" y="337" width="681" height="263" as="geometry" />
        </mxCell>
        <mxCell id="tlnyBGycdhl3UOv0Z1U2-21" value="&lt;div style=&quot;border-color: var(--border-color); font-size: 14px;&quot;&gt;&lt;div style=&quot;border-color: var(--border-color); font-size: 14px;&quot;&gt;&lt;div style=&quot;border-color: var(--border-color); font-size: 14px;&quot;&gt;&lt;div style=&quot;border-color: var(--border-color); font-size: 14px;&quot;&gt;&lt;div style=&quot;border-color: var(--border-color); font-size: 14px; line-height: 150%;&quot;&gt;&lt;div style=&quot;border-color: var(--border-color); line-height: 150%;&quot;&gt;&amp;nbsp; &lt;b&gt;&lt;u&gt;reservation_id &lt;/u&gt;&lt;/b&gt;INT PRIMARY KEY AUTO_INCREMENT,&lt;/div&gt;&lt;div style=&quot;border-color: var(--border-color); line-height: 150%;&quot;&gt;&amp;nbsp; &lt;u&gt;customer_id &lt;/u&gt;INT NOT NULL,&lt;/div&gt;&lt;div style=&quot;border-color: var(--border-color); line-height: 150%;&quot;&gt;&amp;nbsp; &lt;u&gt;table_id &lt;/u&gt;INT NOT NULL,&lt;/div&gt;&lt;div style=&quot;border-color: var(--border-color); line-height: 150%;&quot;&gt;&amp;nbsp; reservation_datetime DATETIME NOT NULL,&lt;/div&gt;&lt;div style=&quot;border-color: var(--border-color); line-height: 150%;&quot;&gt;&amp;nbsp; status ENUM(&#39;confirmed&#39;, &#39;canceled&#39;, &#39;pending&#39;) NOT NULL DEFAULT &#39;pending&#39;,&lt;/div&gt;&lt;div style=&quot;border-color: var(--border-color); line-height: 150%;&quot;&gt;&amp;nbsp; created_at TIMESTAMP DEFAULT CURRENT_TIMESTAMP,&lt;/div&gt;&lt;div style=&quot;border-color: var(--border-color); line-height: 150%;&quot;&gt;&amp;nbsp; updated_at TIMESTAMP DEFAULT CURRENT_TIMESTAMP ON UPDATE CURRENT_TIMESTAMP,&lt;/div&gt;&lt;div style=&quot;border-color: var(--border-color); line-height: 150%;&quot;&gt;&amp;nbsp; FOREIGN KEY (customer_id) REFERENCES Users(user_id),&lt;/div&gt;&lt;div style=&quot;border-color: var(--border-color); line-height: 150%;&quot;&gt;&amp;nbsp; FOREIGN KEY (table_id) REFERENCES Tables(table_id)&lt;/div&gt;&lt;/div&gt;&lt;/div&gt;&lt;/div&gt;&lt;/div&gt;&lt;/div&gt;" style="align=left;strokeColor=none;fillColor=none;spacingLeft=4;fontSize=14;verticalAlign=top;resizable=0;rotatable=0;part=1;html=1;" parent="tlnyBGycdhl3UOv0Z1U2-20" vertex="1">
          <mxGeometry y="50" width="681" height="213" as="geometry" />
        </mxCell>
        <mxCell id="tlnyBGycdhl3UOv0Z1U2-28" value="&lt;b style=&quot;&quot;&gt;&lt;font style=&quot;font-size: 18px;&quot;&gt;items&lt;/font&gt;&lt;/b&gt;" style="swimlane;childLayout=stackLayout;horizontal=1;startSize=50;horizontalStack=0;rounded=1;fontSize=14;fontStyle=0;strokeWidth=2;resizeParent=0;resizeLast=1;shadow=0;dashed=0;align=center;arcSize=4;whiteSpace=wrap;html=1;fillColor=#d5e8d4;strokeColor=#82b366;" parent="1" vertex="1">
          <mxGeometry x="-363" y="-148" width="372" height="276" as="geometry" />
        </mxCell>
        <mxCell id="tlnyBGycdhl3UOv0Z1U2-29" value="&lt;div style=&quot;border-color: var(--border-color); font-size: 14px;&quot;&gt;&lt;div style=&quot;border-color: var(--border-color); font-size: 14px;&quot;&gt;&lt;div style=&quot;border-color: var(--border-color); font-size: 14px;&quot;&gt;+ &lt;u style=&quot;font-size: 14px;&quot;&gt;&lt;b style=&quot;font-size: 14px;&quot;&gt;item_id &lt;/b&gt;&lt;/u&gt;(Primary Key): Unique identifier for each item.&lt;/div&gt;&lt;div style=&quot;border-color: var(--border-color); font-size: 14px;&quot;&gt;+ name: Name of the item&amp;nbsp;&lt;/div&gt;&lt;div style=&quot;border-color: var(--border-color); font-size: 14px;&quot;&gt;(e.g., ingredient name, snack name, drink name).&lt;/div&gt;&lt;div style=&quot;border-color: var(--border-color); font-size: 14px;&quot;&gt;+ description:&amp;nbsp;&lt;/div&gt;&lt;div style=&quot;border-color: var(--border-color); font-size: 14px;&quot;&gt;Description of the item.&lt;/div&gt;&lt;div style=&quot;border-color: var(--border-color); font-size: 14px;&quot;&gt;+ price&lt;/div&gt;&lt;div style=&quot;border-color: var(--border-color); font-size: 14px;&quot;&gt;+ availability&lt;/div&gt;&lt;div style=&quot;border-color: var(--border-color); font-size: 14px;&quot;&gt;Availability status of the item (e.g., available, out of stock).&lt;/div&gt;&lt;div style=&quot;border-color: var(--border-color); font-size: 14px;&quot;&gt;+ stock_quantity&lt;/div&gt;&lt;div style=&quot;border-color: var(--border-color); font-size: 14px;&quot;&gt;Current stock quantity of the item.&lt;/div&gt;&lt;div style=&quot;border-color: var(--border-color); font-size: 14px;&quot;&gt;+ unit_of_measurement&lt;/div&gt;&lt;div style=&quot;border-color: var(--border-color); font-size: 14px;&quot;&gt;Measurement unit for the item (e.g., grams, kilograms).&lt;/div&gt;&lt;/div&gt;&lt;/div&gt;" style="align=left;strokeColor=none;fillColor=none;spacingLeft=4;fontSize=14;verticalAlign=top;resizable=0;rotatable=0;part=1;html=1;" parent="tlnyBGycdhl3UOv0Z1U2-28" vertex="1">
          <mxGeometry y="50" width="372" height="226" as="geometry" />
        </mxCell>
        <mxCell id="tlnyBGycdhl3UOv0Z1U2-32" style="rounded=0;orthogonalLoop=1;jettySize=auto;html=1;entryX=1;entryY=0.25;entryDx=0;entryDy=0;fontSize=14;startArrow=ERoneToMany;startFill=0;endArrow=ERmandOne;endFill=0;" parent="1" source="tlnyBGycdhl3UOv0Z1U2-30" target="tlnyBGycdhl3UOv0Z1U2-29" edge="1">
          <mxGeometry relative="1" as="geometry" />
        </mxCell>
        <mxCell id="tlnyBGycdhl3UOv0Z1U2-33" style="rounded=0;orthogonalLoop=1;jettySize=auto;html=1;fontSize=14;startArrow=ERoneToMany;startFill=0;endArrow=ERmandOne;endFill=0;" parent="1" source="tlnyBGycdhl3UOv0Z1U2-30" target="tlnyBGycdhl3UOv0Z1U2-3" edge="1">
          <mxGeometry relative="1" as="geometry" />
        </mxCell>
        <mxCell id="tlnyBGycdhl3UOv0Z1U2-30" value="&lt;b style=&quot;&quot;&gt;&lt;font style=&quot;font-size: 18px;&quot;&gt;Menus_Items&lt;/font&gt;&lt;/b&gt;" style="swimlane;childLayout=stackLayout;horizontal=1;startSize=50;horizontalStack=0;rounded=1;fontSize=14;fontStyle=0;strokeWidth=2;resizeParent=0;resizeLast=1;shadow=0;dashed=0;align=center;arcSize=4;whiteSpace=wrap;html=1;fillColor=#d5e8d4;strokeColor=#82b366;" parent="1" vertex="1">
          <mxGeometry x="107" y="-298" width="418" height="172" as="geometry" />
        </mxCell>
        <mxCell id="tlnyBGycdhl3UOv0Z1U2-31" value="&lt;div style=&quot;border-color: var(--border-color); font-size: 14px;&quot;&gt;&lt;div style=&quot;border-color: var(--border-color); font-size: 14px;&quot;&gt;&lt;div style=&quot;border-color: var(--border-color); font-size: 14px;&quot;&gt;&lt;div style=&quot;border-color: var(--border-color); font-size: 14px;&quot;&gt;&lt;u style=&quot;font-size: 14px;&quot;&gt;&lt;b style=&quot;font-size: 14px;&quot;&gt;+ menu_item_id &lt;/b&gt;&lt;/u&gt;(Primary Key)&lt;/div&gt;&lt;div style=&quot;border-color: var(--border-color); font-size: 14px;&quot;&gt;item_id (Foreign Key):&amp;nbsp;&lt;/div&gt;&lt;div style=&quot;border-color: var(--border-color); font-size: 14px;&quot;&gt;+ References the item_id of the item in the &quot;Items&quot; table.&lt;/div&gt;&lt;div style=&quot;border-color: var(--border-color); font-size: 14px;&quot;&gt;menu_id (Foreign Key):&amp;nbsp;&lt;/div&gt;&lt;div style=&quot;border-color: var(--border-color); font-size: 14px;&quot;&gt;+ References the menu_id of the menu item in the &quot;Menu&quot; table.&lt;/div&gt;&lt;/div&gt;&lt;/div&gt;&lt;/div&gt;" style="align=left;strokeColor=none;fillColor=none;spacingLeft=4;fontSize=14;verticalAlign=top;resizable=0;rotatable=0;part=1;html=1;" parent="tlnyBGycdhl3UOv0Z1U2-30" vertex="1">
          <mxGeometry y="50" width="418" height="122" as="geometry" />
        </mxCell>
        <mxCell id="tlnyBGycdhl3UOv0Z1U2-42" style="rounded=0;orthogonalLoop=1;jettySize=auto;html=1;entryX=0;entryY=0.25;entryDx=0;entryDy=0;fontSize=14;" parent="1" source="tlnyBGycdhl3UOv0Z1U2-35" target="tlnyBGycdhl3UOv0Z1U2-29" edge="1">
          <mxGeometry relative="1" as="geometry" />
        </mxCell>
        <mxCell id="tlnyBGycdhl3UOv0Z1U2-35" value="&lt;b style=&quot;&quot;&gt;&lt;font style=&quot;font-size: 18px;&quot;&gt;Transactions &lt;/font&gt;&lt;/b&gt;" style="swimlane;childLayout=stackLayout;horizontal=1;startSize=50;horizontalStack=0;rounded=1;fontSize=14;fontStyle=0;strokeWidth=2;resizeParent=0;resizeLast=1;shadow=0;dashed=0;align=center;arcSize=4;whiteSpace=wrap;html=1;fillColor=#d5e8d4;strokeColor=#82b366;" parent="1" vertex="1">
          <mxGeometry x="-970" y="-339" width="384" height="240" as="geometry" />
        </mxCell>
        <mxCell id="tlnyBGycdhl3UOv0Z1U2-36" value="&lt;div style=&quot;border-color: var(--border-color); font-size: 14px;&quot;&gt;&lt;div style=&quot;border-color: var(--border-color); font-size: 14px;&quot;&gt;&lt;div style=&quot;border-color: var(--border-color); font-size: 14px;&quot;&gt;&lt;div style=&quot;border-color: var(--border-color); font-size: 14px; line-height: 170%;&quot;&gt;&lt;div style=&quot;border-color: var(--border-color); font-size: 14px; line-height: 170%;&quot;&gt;&lt;div style=&quot;border-color: var(--border-color); line-height: 170%;&quot;&gt;&amp;nbsp; + &lt;b&gt;&lt;u&gt;transaction_id &lt;/u&gt;&lt;/b&gt;INT PRIMARY KEY AUTO_INCREMENT,&lt;/div&gt;&lt;div style=&quot;border-color: var(--border-color); line-height: 170%;&quot;&gt;&amp;nbsp; + &lt;u&gt;item_id &lt;/u&gt;INT,&lt;/div&gt;&lt;div style=&quot;border-color: var(--border-color); line-height: 170%;&quot;&gt;&amp;nbsp; + transaction_type ENUM(&#39;import&#39;, &#39;use&#39;, &#39;restock&#39;, &#39;sell&#39;),&lt;/div&gt;&lt;div style=&quot;border-color: var(--border-color); line-height: 170%;&quot;&gt;&amp;nbsp; + quantity DECIMAL(10, 2),&lt;/div&gt;&lt;div style=&quot;border-color: var(--border-color); line-height: 170%;&quot;&gt;&amp;nbsp; + payment_amount DECIMAL(10, 2),&lt;/div&gt;&lt;div style=&quot;border-color: var(--border-color); line-height: 170%;&quot;&gt;&amp;nbsp; + payment_method VARCHAR(255),&lt;/div&gt;&lt;div style=&quot;border-color: var(--border-color); line-height: 170%;&quot;&gt;&amp;nbsp; + transaction_timestamp TIMESTAMP,&lt;/div&gt;&lt;/div&gt;&lt;/div&gt;&lt;/div&gt;&lt;/div&gt;&lt;/div&gt;" style="align=left;strokeColor=none;fillColor=none;spacingLeft=4;fontSize=14;verticalAlign=top;resizable=0;rotatable=0;part=1;html=1;" parent="tlnyBGycdhl3UOv0Z1U2-35" vertex="1">
          <mxGeometry y="50" width="384" height="190" as="geometry" />
        </mxCell>
        <mxCell id="tlnyBGycdhl3UOv0Z1U2-37" value="&lt;b style=&quot;&quot;&gt;&lt;font style=&quot;font-size: 18px;&quot;&gt;Sales Report&lt;/font&gt;&lt;/b&gt;" style="swimlane;childLayout=stackLayout;horizontal=1;startSize=50;horizontalStack=0;rounded=1;fontSize=14;fontStyle=0;strokeWidth=2;resizeParent=0;resizeLast=1;shadow=0;dashed=0;align=center;arcSize=4;whiteSpace=wrap;html=1;fillColor=#d5e8d4;strokeColor=#82b366;" parent="1" vertex="1">
          <mxGeometry x="-1154" y="252" width="448" height="166" as="geometry" />
        </mxCell>
        <mxCell id="tlnyBGycdhl3UOv0Z1U2-38" value="&lt;div style=&quot;border-color: var(--border-color); font-size: 14px;&quot;&gt;&lt;div style=&quot;border-color: var(--border-color); font-size: 14px;&quot;&gt;&lt;div style=&quot;border-color: var(--border-color); font-size: 14px;&quot;&gt;&lt;div style=&quot;border-color: var(--border-color); font-size: 14px;&quot;&gt;&lt;div style=&quot;border-color: var(--border-color); font-size: 14px;&quot;&gt;&lt;u style=&quot;font-size: 14px;&quot;&gt;&lt;b style=&quot;font-size: 14px;&quot;&gt;report_id &lt;/b&gt;&lt;/u&gt;(Primary Key): Unique identifier for each sales report.&lt;/div&gt;&lt;div style=&quot;border-color: var(--border-color); font-size: 14px;&quot;&gt;report_date: Date of the sales report.&lt;/div&gt;&lt;div style=&quot;border-color: var(--border-color); font-size: 14px;&quot;&gt;total_sales: Total sales revenue for the specific date.&lt;/div&gt;&lt;div style=&quot;border-color: var(--border-color); font-size: 14px;&quot;&gt;total_orders: Total number of orders received for the specific date.&lt;/div&gt;&lt;div style=&quot;border-color: var(--border-color); font-size: 14px;&quot;&gt;total_payments: Total payment amount received for the specific date.&lt;/div&gt;&lt;/div&gt;&lt;/div&gt;&lt;/div&gt;&lt;/div&gt;" style="align=left;strokeColor=none;fillColor=none;spacingLeft=4;fontSize=14;verticalAlign=top;resizable=0;rotatable=0;part=1;html=1;" parent="tlnyBGycdhl3UOv0Z1U2-37" vertex="1">
          <mxGeometry y="50" width="448" height="116" as="geometry" />
        </mxCell>
        <mxCell id="ZRD5mA5tjMRim-bTO9R6-5" value="User can decide to not recording the inventory section, item &lt;br&gt;can be import directly into databse" style="text;html=1;align=center;verticalAlign=middle;resizable=0;points=[];autosize=1;strokeColor=none;fillColor=none;" parent="1" vertex="1">
          <mxGeometry x="-576" y="-228" width="334" height="41" as="geometry" />
        </mxCell>
        <mxCell id="4KZed-9JrN03BDow-iql-1" value="&lt;b style=&quot;&quot;&gt;&lt;font style=&quot;font-size: 18px;&quot;&gt;Categories&lt;/font&gt;&lt;/b&gt;" style="swimlane;childLayout=stackLayout;horizontal=1;startSize=50;horizontalStack=0;rounded=1;fontSize=14;fontStyle=0;strokeWidth=2;resizeParent=0;resizeLast=1;shadow=0;dashed=0;align=center;arcSize=4;whiteSpace=wrap;html=1;fillColor=#d5e8d4;strokeColor=#82b366;" vertex="1" parent="1">
          <mxGeometry x="927" y="-351" width="186" height="99" as="geometry" />
        </mxCell>
        <mxCell id="4KZed-9JrN03BDow-iql-2" value="&lt;div style=&quot;border-color: var(--border-color); font-size: 14px;&quot;&gt;&lt;div style=&quot;border-color: var(--border-color); font-size: 14px;&quot;&gt;&lt;span style=&quot;background-color: initial; font-size: 14px;&quot;&gt;&lt;u style=&quot;font-size: 14px;&quot;&gt;&lt;b style=&quot;font-size: 14px;&quot;&gt;category_id (Primary Key)&lt;/b&gt;&lt;/u&gt;&lt;/span&gt;&lt;br style=&quot;font-size: 14px;&quot;&gt;&lt;/div&gt;&lt;div style=&quot;border-color: var(--border-color); font-size: 14px;&quot;&gt;name&lt;/div&gt;&lt;/div&gt;" style="align=left;strokeColor=none;fillColor=none;spacingLeft=4;fontSize=14;verticalAlign=top;resizable=0;rotatable=0;part=1;html=1;" vertex="1" parent="4KZed-9JrN03BDow-iql-1">
          <mxGeometry y="50" width="186" height="49" as="geometry" />
        </mxCell>
        <mxCell id="4KZed-9JrN03BDow-iql-6" value="&lt;b style=&quot;&quot;&gt;&lt;font style=&quot;font-size: 18px;&quot;&gt;Inventory&lt;/font&gt;&lt;/b&gt;" style="swimlane;childLayout=stackLayout;horizontal=1;startSize=50;horizontalStack=0;rounded=1;fontSize=14;fontStyle=0;strokeWidth=2;resizeParent=0;resizeLast=1;shadow=0;dashed=0;align=center;arcSize=4;whiteSpace=wrap;html=1;fillColor=#d5e8d4;strokeColor=#82b366;" vertex="1" parent="1">
          <mxGeometry x="-512" y="-485" width="664" height="146" as="geometry" />
        </mxCell>
        <mxCell id="4KZed-9JrN03BDow-iql-7" value="&lt;div style=&quot;border-color: var(--border-color); font-size: 14px;&quot;&gt;&lt;div style=&quot;border-color: var(--border-color); font-size: 14px;&quot;&gt;&lt;div style=&quot;border-color: var(--border-color); font-size: 14px;&quot;&gt;&lt;div style=&quot;border-color: var(--border-color);&quot;&gt;&lt;div style=&quot;border-color: var(--border-color);&quot;&gt;&amp;nbsp; &lt;u&gt;&lt;b&gt;inventory_id &lt;/b&gt;&lt;/u&gt;INT PRIMARY KEY AUTO_INCREMENT,&lt;/div&gt;&lt;div style=&quot;border-color: var(--border-color);&quot;&gt;&amp;nbsp; item_id INT NOT NULL,&lt;/div&gt;&lt;div style=&quot;border-color: var(--border-color);&quot;&gt;&amp;nbsp; quantity DECIMAL(10, 2) NOT NULL,&lt;/div&gt;&lt;div style=&quot;border-color: var(--border-color);&quot;&gt;&amp;nbsp; unit_of_measurement VARCHAR(50) NOT NULL,&lt;/div&gt;&lt;div style=&quot;border-color: var(--border-color);&quot;&gt;&amp;nbsp; last_updated TIMESTAMP DEFAULT CURRENT_TIMESTAMP ON UPDATE CURRENT_TIMESTAMP,&lt;/div&gt;&lt;/div&gt;&lt;/div&gt;&lt;/div&gt;&lt;/div&gt;" style="align=left;strokeColor=none;fillColor=none;spacingLeft=4;fontSize=14;verticalAlign=top;resizable=0;rotatable=0;part=1;html=1;" vertex="1" parent="4KZed-9JrN03BDow-iql-6">
          <mxGeometry y="50" width="664" height="96" as="geometry" />
        </mxCell>
        <mxCell id="4KZed-9JrN03BDow-iql-8" style="rounded=0;orthogonalLoop=1;jettySize=auto;html=1;" edge="1" parent="1" source="4KZed-9JrN03BDow-iql-7" target="tlnyBGycdhl3UOv0Z1U2-28">
          <mxGeometry relative="1" as="geometry" />
        </mxCell>
      </root>
    </mxGraphModel>
  </diagram>
  <diagram id="kH9iOWv6fZXzeBtemc18" name="Page-2">
    <mxGraphModel dx="2435" dy="1084" grid="0" gridSize="10" guides="1" tooltips="1" connect="1" arrows="1" fold="1" page="0" pageScale="1" pageWidth="850" pageHeight="1100" math="0" shadow="0">
      <root>
        <mxCell id="0" />
        <mxCell id="1" parent="0" />
        <mxCell id="Qnssa7Y3MquV65bTYyZ--1" style="rounded=0;orthogonalLoop=1;jettySize=auto;html=1;entryX=0.5;entryY=1;entryDx=0;entryDy=0;exitX=0.5;exitY=0;exitDx=0;exitDy=0;fontSize=15;endSize=12;startSize=12;" parent="1" source="Qnssa7Y3MquV65bTYyZ--16" target="Qnssa7Y3MquV65bTYyZ--29" edge="1">
          <mxGeometry relative="1" as="geometry">
            <mxPoint x="347.4074074074074" y="430" as="sourcePoint" />
            <mxPoint x="356.36363636363626" y="360" as="targetPoint" />
          </mxGeometry>
        </mxCell>
        <mxCell id="Qnssa7Y3MquV65bTYyZ--2" style="rounded=0;orthogonalLoop=1;jettySize=auto;html=1;entryX=1;entryY=0.5;entryDx=0;entryDy=0;exitX=0;exitY=0.5;exitDx=0;exitDy=0;fontSize=15;endSize=12;startSize=12;" parent="1" source="Qnssa7Y3MquV65bTYyZ--17" target="Qnssa7Y3MquV65bTYyZ--15" edge="1">
          <mxGeometry relative="1" as="geometry">
            <mxPoint x="313.80645161290295" y="470" as="sourcePoint" />
          </mxGeometry>
        </mxCell>
        <mxCell id="Qnssa7Y3MquV65bTYyZ--3" style="rounded=0;orthogonalLoop=1;jettySize=auto;html=1;exitX=0.5;exitY=0;exitDx=0;exitDy=0;entryX=0.5;entryY=1;entryDx=0;entryDy=0;fontSize=15;endSize=12;startSize=12;" parent="1" source="Qnssa7Y3MquV65bTYyZ--18" target="Qnssa7Y3MquV65bTYyZ--15" edge="1">
          <mxGeometry relative="1" as="geometry">
            <mxPoint x="493.6071428571431" y="542" as="sourcePoint" />
            <mxPoint x="373.3928571428569" y="470" as="targetPoint" />
          </mxGeometry>
        </mxCell>
        <mxCell id="Qnssa7Y3MquV65bTYyZ--4" value="&lt;b style=&quot;font-size: 18px;&quot;&gt;&lt;font style=&quot;font-size: 18px;&quot;&gt;Users&lt;/font&gt;&lt;/b&gt;" style="swimlane;childLayout=stackLayout;horizontal=1;startSize=50;horizontalStack=0;rounded=1;fontSize=18;fontStyle=0;strokeWidth=2;resizeParent=0;resizeLast=1;shadow=0;dashed=0;align=center;arcSize=4;whiteSpace=wrap;html=1;aspect=fixed;" parent="1" vertex="1">
          <mxGeometry x="346" y="214" width="393" height="242" as="geometry" />
        </mxCell>
        <mxCell id="Qnssa7Y3MquV65bTYyZ--5" value="&lt;div style=&quot;border-color: var(--border-color); line-height: 220%; font-size: 15px;&quot;&gt;+ &lt;u style=&quot;font-size: 15px;&quot;&gt;&lt;b style=&quot;font-size: 15px;&quot;&gt;user_id (Primary Key)&lt;/b&gt;&lt;/u&gt;&lt;/div&gt;&lt;div style=&quot;border-color: var(--border-color); line-height: 220%; font-size: 15px;&quot;&gt;+ username&lt;/div&gt;&lt;div style=&quot;border-color: var(--border-color); line-height: 220%; font-size: 15px;&quot;&gt;+ email&lt;/div&gt;&lt;div style=&quot;border-color: var(--border-color); line-height: 220%; font-size: 15px;&quot;&gt;+ password_hash&lt;/div&gt;&lt;div style=&quot;border-color: var(--border-color); line-height: 220%; font-size: 15px;&quot;&gt;+ role: User role (e.g., waiter, chef, manager, customer).&lt;/div&gt;" style="align=left;strokeColor=none;fillColor=none;spacingLeft=4;fontSize=15;verticalAlign=top;resizable=0;rotatable=0;part=1;html=1;" parent="Qnssa7Y3MquV65bTYyZ--4" vertex="1">
          <mxGeometry y="50" width="393" height="192" as="geometry" />
        </mxCell>
        <mxCell id="Qnssa7Y3MquV65bTYyZ--6" style="rounded=0;orthogonalLoop=1;jettySize=auto;html=1;entryX=0.5;entryY=1;entryDx=0;entryDy=0;fontSize=15;endSize=12;startSize=12;" parent="1" source="Qnssa7Y3MquV65bTYyZ--7" target="Qnssa7Y3MquV65bTYyZ--12" edge="1">
          <mxGeometry relative="1" as="geometry" />
        </mxCell>
        <mxCell id="Qnssa7Y3MquV65bTYyZ--7" value="&lt;b style=&quot;font-size: 15px;&quot;&gt;&lt;font style=&quot;font-size: 15px;&quot;&gt;Menus&lt;/font&gt;&lt;/b&gt;" style="swimlane;childLayout=stackLayout;horizontal=1;startSize=50;horizontalStack=0;rounded=1;fontSize=15;fontStyle=0;strokeWidth=2;resizeParent=0;resizeLast=1;shadow=0;dashed=0;align=center;arcSize=4;whiteSpace=wrap;html=1;" parent="1" vertex="1">
          <mxGeometry x="285" y="-13" width="180" height="181" as="geometry" />
        </mxCell>
        <mxCell id="Qnssa7Y3MquV65bTYyZ--8" value="&lt;div style=&quot;border-color: var(--border-color); font-size: 15px;&quot;&gt;&lt;div style=&quot;border-color: var(--border-color); font-size: 15px; line-height: 220%;&quot;&gt;&lt;div style=&quot;border-color: var(--border-color); font-size: 15px; line-height: 220%;&quot;&gt;&lt;u style=&quot;font-size: 15px;&quot;&gt;&lt;b style=&quot;font-size: 15px;&quot;&gt;+ menu_id &lt;/b&gt;&lt;/u&gt;(Primary Key)&lt;/div&gt;&lt;div style=&quot;border-color: var(--border-color); font-size: 15px; line-height: 220%;&quot;&gt;+ name&lt;/div&gt;&lt;div style=&quot;border-color: var(--border-color); font-size: 15px; line-height: 220%;&quot;&gt;+ description&lt;/div&gt;&lt;div style=&quot;border-color: var(--border-color); font-size: 15px; line-height: 220%;&quot;&gt;+ category_id&lt;/div&gt;&lt;/div&gt;&lt;/div&gt;" style="align=left;strokeColor=none;fillColor=none;spacingLeft=4;fontSize=15;verticalAlign=top;resizable=0;rotatable=0;part=1;html=1;" parent="Qnssa7Y3MquV65bTYyZ--7" vertex="1">
          <mxGeometry y="50" width="180" height="131" as="geometry" />
        </mxCell>
        <mxCell id="Qnssa7Y3MquV65bTYyZ--9" value="&lt;b style=&quot;font-size: 15px;&quot;&gt;&lt;font style=&quot;font-size: 15px;&quot;&gt;Tables&lt;/font&gt;&lt;/b&gt;" style="swimlane;childLayout=stackLayout;horizontal=1;startSize=50;horizontalStack=0;rounded=1;fontSize=15;fontStyle=0;strokeWidth=2;resizeParent=0;resizeLast=1;shadow=0;dashed=0;align=center;arcSize=4;whiteSpace=wrap;html=1;" parent="1" vertex="1">
          <mxGeometry x="-194" y="600" width="196" height="196" as="geometry" />
        </mxCell>
        <mxCell id="Qnssa7Y3MquV65bTYyZ--10" value="&lt;div style=&quot;border-color: var(--border-color); font-size: 15px; line-height: 220%;&quot;&gt;&lt;div style=&quot;border-color: var(--border-color); font-size: 15px; line-height: 220%;&quot;&gt;&lt;span style=&quot;background-color: initial; font-size: 15px;&quot;&gt;&lt;u style=&quot;font-size: 15px;&quot;&gt;&lt;b style=&quot;font-size: 15px;&quot;&gt;+ table_id (Primary Key)&lt;/b&gt;&lt;/u&gt;&lt;/span&gt;&lt;br style=&quot;font-size: 15px;&quot;&gt;&lt;/div&gt;&lt;div style=&quot;border-color: var(--border-color); font-size: 15px; line-height: 220%;&quot;&gt;+ number_of_seats&lt;/div&gt;&lt;div style=&quot;border-color: var(--border-color); font-size: 15px; line-height: 220%;&quot;&gt;&lt;span style=&quot;background-color: initial; font-size: 15px;&quot;&gt;+ location&lt;/span&gt;&lt;br style=&quot;font-size: 15px;&quot;&gt;&lt;/div&gt;&lt;div style=&quot;border-color: var(--border-color); font-size: 15px; line-height: 220%;&quot;&gt;&lt;span style=&quot;background-color: initial; font-size: 15px;&quot;&gt;+ status&lt;/span&gt;&lt;br style=&quot;font-size: 15px;&quot;&gt;&lt;/div&gt;&lt;/div&gt;" style="align=left;strokeColor=none;fillColor=none;spacingLeft=4;fontSize=15;verticalAlign=top;resizable=0;rotatable=0;part=1;html=1;" parent="Qnssa7Y3MquV65bTYyZ--9" vertex="1">
          <mxGeometry y="50" width="196" height="146" as="geometry" />
        </mxCell>
        <mxCell id="Qnssa7Y3MquV65bTYyZ--11" value="&lt;b style=&quot;font-size: 15px;&quot;&gt;&lt;font style=&quot;font-size: 15px;&quot;&gt;Categories&lt;/font&gt;&lt;/b&gt;" style="swimlane;childLayout=stackLayout;horizontal=1;startSize=50;horizontalStack=0;rounded=1;fontSize=15;fontStyle=0;strokeWidth=2;resizeParent=0;resizeLast=1;shadow=0;dashed=0;align=center;arcSize=4;whiteSpace=wrap;html=1;" parent="1" vertex="1">
          <mxGeometry x="523" y="-139" width="203" height="99" as="geometry" />
        </mxCell>
        <mxCell id="Qnssa7Y3MquV65bTYyZ--12" value="&lt;div style=&quot;border-color: var(--border-color); font-size: 15px;&quot;&gt;&lt;div style=&quot;border-color: var(--border-color); font-size: 15px;&quot;&gt;&lt;span style=&quot;background-color: initial; font-size: 15px;&quot;&gt;&lt;u style=&quot;font-size: 15px;&quot;&gt;&lt;b style=&quot;font-size: 15px;&quot;&gt;+ category_id (Primary Key)&lt;/b&gt;&lt;/u&gt;&lt;/span&gt;&lt;br style=&quot;font-size: 15px;&quot;&gt;&lt;/div&gt;&lt;div style=&quot;border-color: var(--border-color); font-size: 15px;&quot;&gt;+ name&lt;/div&gt;&lt;/div&gt;" style="align=left;strokeColor=none;fillColor=none;spacingLeft=4;fontSize=15;verticalAlign=top;resizable=0;rotatable=0;part=1;html=1;" parent="Qnssa7Y3MquV65bTYyZ--11" vertex="1">
          <mxGeometry y="50" width="203" height="49" as="geometry" />
        </mxCell>
        <mxCell id="Qnssa7Y3MquV65bTYyZ--13" style="rounded=0;orthogonalLoop=1;jettySize=auto;html=1;fontSize=15;endSize=12;startSize=12;" parent="1" source="Qnssa7Y3MquV65bTYyZ--14" target="Qnssa7Y3MquV65bTYyZ--9" edge="1">
          <mxGeometry relative="1" as="geometry" />
        </mxCell>
        <mxCell id="Qnssa7Y3MquV65bTYyZ--14" value="&lt;b style=&quot;font-size: 15px;&quot;&gt;&lt;font style=&quot;font-size: 15px;&quot;&gt;Orders&lt;/font&gt;&lt;/b&gt;" style="swimlane;childLayout=stackLayout;horizontal=1;startSize=50;horizontalStack=0;rounded=1;fontSize=15;fontStyle=0;strokeWidth=2;resizeParent=0;resizeLast=1;shadow=0;dashed=0;align=center;arcSize=4;whiteSpace=wrap;html=1;" parent="1" vertex="1">
          <mxGeometry x="-426" y="274" width="205" height="254" as="geometry" />
        </mxCell>
        <mxCell id="Qnssa7Y3MquV65bTYyZ--15" value="&lt;div style=&quot;border-color: var(--border-color); font-size: 15px;&quot;&gt;&lt;div style=&quot;border-color: var(--border-color); font-size: 15px; line-height: 220%;&quot;&gt;&lt;div style=&quot;border-color: var(--border-color); font-size: 15px; line-height: 220%;&quot;&gt;&lt;span style=&quot;background-color: initial; font-size: 15px;&quot;&gt;+ &lt;b style=&quot;font-size: 15px;&quot;&gt;order_id &lt;/b&gt;(Primary Key)&lt;/span&gt;&lt;br style=&quot;font-size: 15px;&quot;&gt;&lt;/div&gt;&lt;div style=&quot;border-color: var(--border-color); font-size: 15px; line-height: 220%;&quot;&gt;+ &lt;u style=&quot;font-size: 15px;&quot;&gt;customer_id&amp;nbsp;&lt;/u&gt;(Foreign Key)&lt;/div&gt;&lt;div style=&quot;border-color: var(--border-color); font-size: 15px; line-height: 220%;&quot;&gt;&lt;span style=&quot;background-color: initial; font-size: 15px;&quot;&gt;+&amp;nbsp;&lt;/span&gt;&lt;u style=&quot;background-color: initial; border-color: var(--border-color); font-size: 15px;&quot;&gt;staff_id&lt;/u&gt;&lt;span style=&quot;background-color: initial; font-size: 15px;&quot;&gt;(Foreign Key)&lt;/span&gt;&lt;br style=&quot;font-size: 15px;&quot;&gt;&lt;/div&gt;&lt;div style=&quot;border-color: var(--border-color); font-size: 15px; line-height: 220%;&quot;&gt;&lt;div style=&quot;border-color: var(--border-color); font-size: 15px; line-height: 220%;&quot;&gt;&lt;span style=&quot;background-color: initial; font-size: 15px;&quot;&gt;+ &lt;/span&gt;&lt;u style=&quot;background-color: initial; font-size: 15px;&quot;&gt;table_id &lt;/u&gt;&lt;span style=&quot;background-color: initial; font-size: 15px;&quot;&gt;(Foreign Key)&lt;/span&gt;&lt;br style=&quot;font-size: 15px;&quot;&gt;&lt;/div&gt;&lt;/div&gt;&lt;div style=&quot;border-color: var(--border-color); font-size: 15px; line-height: 220%;&quot;&gt;&lt;span style=&quot;background-color: initial; font-size: 15px;&quot;&gt;+ order_status&lt;/span&gt;&lt;br style=&quot;font-size: 15px;&quot;&gt;&lt;/div&gt;&lt;div style=&quot;border-color: var(--border-color); font-size: 15px; line-height: 220%;&quot;&gt;&lt;span style=&quot;background-color: initial; font-size: 15px;&quot;&gt;+ order_timestamp&lt;/span&gt;&lt;/div&gt;&lt;/div&gt;&lt;/div&gt;" style="align=left;strokeColor=none;fillColor=none;spacingLeft=4;fontSize=15;verticalAlign=top;resizable=0;rotatable=0;part=1;html=1;" parent="Qnssa7Y3MquV65bTYyZ--14" vertex="1">
          <mxGeometry y="50" width="205" height="204" as="geometry" />
        </mxCell>
        <mxCell id="Qnssa7Y3MquV65bTYyZ--16" value="&lt;b style=&quot;font-size: 15px;&quot;&gt;&lt;font style=&quot;font-size: 15px;&quot;&gt;Orders_Menus&lt;/font&gt;&lt;/b&gt;" style="swimlane;childLayout=stackLayout;horizontal=1;startSize=50;horizontalStack=0;rounded=1;fontSize=15;fontStyle=0;strokeWidth=2;resizeParent=0;resizeLast=1;shadow=0;dashed=0;align=center;arcSize=4;whiteSpace=wrap;html=1;" parent="1" vertex="1">
          <mxGeometry x="-74" y="219" width="223" height="217" as="geometry" />
        </mxCell>
        <mxCell id="Qnssa7Y3MquV65bTYyZ--17" value="&lt;div style=&quot;border-color: var(--border-color); font-size: 15px;&quot;&gt;&lt;div style=&quot;border-color: var(--border-color); font-size: 15px;&quot;&gt;&lt;div style=&quot;border-color: var(--border-color); font-size: 15px; line-height: 220%;&quot;&gt;&lt;div style=&quot;border-color: var(--border-color); font-size: 15px; line-height: 220%;&quot;&gt;&lt;span style=&quot;background-color: initial; font-size: 15px;&quot;&gt;&lt;b style=&quot;font-size: 15px;&quot;&gt;+ &lt;u style=&quot;font-size: 15px;&quot;&gt;order_item_id &lt;/u&gt;(Primary Key)&lt;/b&gt;&lt;/span&gt;&lt;br style=&quot;font-size: 15px;&quot;&gt;&lt;/div&gt;&lt;div style=&quot;border-color: var(--border-color); font-size: 15px; line-height: 220%;&quot;&gt;&lt;span style=&quot;font-size: 15px;&quot;&gt;+&lt;/span&gt;&lt;span style=&quot;font-size: 15px;&quot;&gt; &lt;/span&gt;&lt;span style=&quot;font-size: 15px;&quot;&gt;order_id &lt;/span&gt;(Foreign Key):&amp;nbsp;&lt;/div&gt;&lt;div style=&quot;border-color: var(--border-color); font-size: 15px; line-height: 220%;&quot;&gt;&lt;span style=&quot;background-color: initial; font-size: 15px;&quot;&gt;+ &lt;/span&gt;&lt;span style=&quot;background-color: initial; font-size: 15px;&quot;&gt;menu_item_id &lt;/span&gt;&lt;span style=&quot;background-color: initial; font-size: 15px;&quot;&gt;(Foreign Key):&amp;nbsp;&lt;/span&gt;&lt;br style=&quot;font-size: 15px;&quot;&gt;&lt;/div&gt;&lt;div style=&quot;border-color: var(--border-color); font-size: 15px; line-height: 220%;&quot;&gt;&lt;span style=&quot;background-color: initial; font-size: 15px;&quot;&gt;+ quantity:&amp;nbsp;&lt;/span&gt;&lt;br style=&quot;font-size: 15px;&quot;&gt;&lt;/div&gt;&lt;div style=&quot;border-color: var(--border-color); font-size: 15px; line-height: 220%;&quot;&gt;&lt;span style=&quot;background-color: initial; font-size: 15px;&quot;&gt;+ notes&lt;/span&gt;&lt;br style=&quot;font-size: 15px;&quot;&gt;&lt;/div&gt;&lt;/div&gt;&lt;/div&gt;&lt;/div&gt;" style="align=left;strokeColor=none;fillColor=none;spacingLeft=4;fontSize=15;verticalAlign=top;resizable=0;rotatable=0;part=1;html=1;" parent="Qnssa7Y3MquV65bTYyZ--16" vertex="1">
          <mxGeometry y="50" width="223" height="167" as="geometry" />
        </mxCell>
        <mxCell id="Qnssa7Y3MquV65bTYyZ--18" value="&lt;b style=&quot;font-size: 15px;&quot;&gt;&lt;font style=&quot;font-size: 15px;&quot;&gt;Payments&lt;/font&gt;&lt;/b&gt;" style="swimlane;childLayout=stackLayout;horizontal=1;startSize=50;horizontalStack=0;rounded=1;fontSize=15;fontStyle=0;strokeWidth=2;resizeParent=0;resizeLast=1;shadow=0;dashed=0;align=center;arcSize=4;whiteSpace=wrap;html=1;" parent="1" vertex="1">
          <mxGeometry x="-563" y="629" width="193" height="215" as="geometry" />
        </mxCell>
        <mxCell id="Qnssa7Y3MquV65bTYyZ--19" value="&lt;div style=&quot;border-color: var(--border-color); font-size: 15px;&quot;&gt;&lt;div style=&quot;border-color: var(--border-color); font-size: 15px;&quot;&gt;&lt;div style=&quot;border-color: var(--border-color); font-size: 15px;&quot;&gt;&lt;div style=&quot;border-color: var(--border-color); font-size: 15px; line-height: 220%;&quot;&gt;&lt;div style=&quot;border-color: var(--border-color); font-size: 15px; line-height: 220%;&quot;&gt;+ &lt;u style=&quot;font-size: 15px;&quot;&gt;&lt;b style=&quot;font-size: 15px;&quot;&gt;payment_id &lt;/b&gt;&lt;/u&gt;(Primary Key)&lt;/div&gt;&lt;div style=&quot;border-color: var(--border-color); font-size: 15px; line-height: 220%;&quot;&gt;+ &lt;u style=&quot;font-size: 15px;&quot;&gt;order_id &lt;/u&gt;(Foreign Key):&amp;nbsp;&lt;/div&gt;&lt;div style=&quot;border-color: var(--border-color); font-size: 15px; line-height: 220%;&quot;&gt;&lt;span style=&quot;background-color: initial; font-size: 15px;&quot;&gt;+ payment_amount:&amp;nbsp;&lt;/span&gt;&lt;br style=&quot;font-size: 15px;&quot;&gt;&lt;/div&gt;&lt;div style=&quot;border-color: var(--border-color); font-size: 15px; line-height: 220%;&quot;&gt;&lt;span style=&quot;background-color: initial; font-size: 15px;&quot;&gt;+ payment_method:&amp;nbsp;&lt;/span&gt;&lt;br style=&quot;font-size: 15px;&quot;&gt;&lt;/div&gt;&lt;div style=&quot;border-color: var(--border-color); font-size: 15px; line-height: 220%;&quot;&gt;&lt;span style=&quot;background-color: initial; font-size: 15px;&quot;&gt;+ payment_timestamp:&amp;nbsp;&lt;/span&gt;&lt;br style=&quot;font-size: 15px;&quot;&gt;&lt;/div&gt;&lt;/div&gt;&lt;/div&gt;&lt;/div&gt;&lt;/div&gt;" style="align=left;strokeColor=none;fillColor=none;spacingLeft=4;fontSize=15;verticalAlign=top;resizable=0;rotatable=0;part=1;html=1;rounded=0;" parent="Qnssa7Y3MquV65bTYyZ--18" vertex="1">
          <mxGeometry y="50" width="193" height="165" as="geometry" />
        </mxCell>
        <mxCell id="Qnssa7Y3MquV65bTYyZ--20" style="rounded=0;orthogonalLoop=1;jettySize=auto;html=1;entryX=0.25;entryY=1;entryDx=0;entryDy=0;fontSize=15;endSize=12;startSize=12;" parent="1" source="Qnssa7Y3MquV65bTYyZ--22" target="Qnssa7Y3MquV65bTYyZ--5" edge="1">
          <mxGeometry relative="1" as="geometry" />
        </mxCell>
        <mxCell id="Qnssa7Y3MquV65bTYyZ--21" style="edgeStyle=orthogonalEdgeStyle;rounded=0;orthogonalLoop=1;jettySize=auto;html=1;entryX=1;entryY=0.5;entryDx=0;entryDy=0;exitX=0.5;exitY=1;exitDx=0;exitDy=0;fontSize=15;endSize=12;startSize=12;" parent="1" source="Qnssa7Y3MquV65bTYyZ--23" target="Qnssa7Y3MquV65bTYyZ--10" edge="1">
          <mxGeometry relative="1" as="geometry" />
        </mxCell>
        <mxCell id="Qnssa7Y3MquV65bTYyZ--22" value="&lt;b style=&quot;font-size: 15px;&quot;&gt;&lt;font style=&quot;font-size: 15px;&quot;&gt;Reservation&lt;/font&gt;&lt;/b&gt;" style="swimlane;childLayout=stackLayout;horizontal=1;startSize=50;horizontalStack=0;rounded=1;fontSize=15;fontStyle=0;strokeWidth=2;resizeParent=0;resizeLast=1;shadow=0;dashed=0;align=center;arcSize=4;whiteSpace=wrap;html=1;" parent="1" vertex="1">
          <mxGeometry x="113" y="475" width="215" height="217" as="geometry" />
        </mxCell>
        <mxCell id="Qnssa7Y3MquV65bTYyZ--23" value="&lt;div style=&quot;border-color: var(--border-color); font-size: 15px;&quot;&gt;&lt;div style=&quot;border-color: var(--border-color); font-size: 15px;&quot;&gt;&lt;div style=&quot;border-color: var(--border-color); font-size: 15px;&quot;&gt;&lt;div style=&quot;border-color: var(--border-color); font-size: 15px; line-height: 220%;&quot;&gt;&lt;div style=&quot;border-color: var(--border-color); font-size: 15px; line-height: 220%;&quot;&gt;+ &lt;u style=&quot;font-size: 15px;&quot;&gt;&lt;b style=&quot;font-size: 15px;&quot;&gt;reservation_id &lt;/b&gt;&lt;/u&gt;(Primary Key)&lt;/div&gt;&lt;div style=&quot;border-color: var(--border-color); font-size: 15px; line-height: 220%;&quot;&gt;+ &lt;u style=&quot;font-size: 15px;&quot;&gt;customer_id &lt;/u&gt;(Foreign Key)&lt;/div&gt;&lt;div style=&quot;border-color: var(--border-color); font-size: 15px; line-height: 220%;&quot;&gt;&lt;span style=&quot;background-color: initial; font-size: 15px;&quot;&gt;+ &lt;/span&gt;&lt;u style=&quot;background-color: initial; font-size: 15px;&quot;&gt;table_id &lt;/u&gt;&lt;span style=&quot;background-color: initial; font-size: 15px;&quot;&gt;(Foreign Key)&lt;/span&gt;&lt;br style=&quot;font-size: 15px;&quot;&gt;&lt;/div&gt;&lt;div style=&quot;border-color: var(--border-color); font-size: 15px; line-height: 220%;&quot;&gt;+ reservation_datetime&lt;/div&gt;&lt;div style=&quot;border-color: var(--border-color); font-size: 15px; line-height: 220%;&quot;&gt;+ status&lt;br style=&quot;font-size: 15px;&quot;&gt;&lt;/div&gt;&lt;/div&gt;&lt;/div&gt;&lt;/div&gt;&lt;/div&gt;" style="align=left;strokeColor=none;fillColor=none;spacingLeft=4;fontSize=15;verticalAlign=top;resizable=0;rotatable=0;part=1;html=1;" parent="Qnssa7Y3MquV65bTYyZ--22" vertex="1">
          <mxGeometry y="50" width="215" height="167" as="geometry" />
        </mxCell>
        <mxCell id="Qnssa7Y3MquV65bTYyZ--24" value="&lt;b style=&quot;font-size: 15px;&quot;&gt;&lt;font style=&quot;font-size: 15px;&quot;&gt;items&lt;/font&gt;&lt;/b&gt;" style="swimlane;childLayout=stackLayout;horizontal=1;startSize=50;horizontalStack=0;rounded=1;fontSize=15;fontStyle=0;strokeWidth=2;resizeParent=0;resizeLast=1;shadow=0;dashed=0;align=center;arcSize=4;whiteSpace=wrap;html=1;" parent="1" vertex="1">
          <mxGeometry x="-363" y="-148" width="197" height="281" as="geometry" />
        </mxCell>
        <mxCell id="Qnssa7Y3MquV65bTYyZ--25" value="&lt;div style=&quot;border-color: var(--border-color); font-size: 15px;&quot;&gt;&lt;div style=&quot;border-color: var(--border-color); font-size: 15px; line-height: 220%;&quot;&gt;&lt;div style=&quot;border-color: var(--border-color); font-size: 15px; line-height: 220%;&quot;&gt;+ &lt;u style=&quot;font-size: 15px;&quot;&gt;&lt;b style=&quot;font-size: 15px;&quot;&gt;item_id &lt;/b&gt;&lt;/u&gt;(Primary Key)&lt;/div&gt;&lt;div style=&quot;border-color: var(--border-color); font-size: 15px; line-height: 220%;&quot;&gt;+ name&lt;/div&gt;&lt;div style=&quot;border-color: var(--border-color); font-size: 15px; line-height: 220%;&quot;&gt;+ description&lt;/div&gt;&lt;div style=&quot;border-color: var(--border-color); font-size: 15px; line-height: 220%;&quot;&gt;+ price&lt;/div&gt;&lt;div style=&quot;border-color: var(--border-color); font-size: 15px; line-height: 220%;&quot;&gt;+ availability&lt;/div&gt;&lt;div style=&quot;border-color: var(--border-color); font-size: 15px; line-height: 220%;&quot;&gt;&lt;span style=&quot;background-color: initial; font-size: 15px;&quot;&gt;+ stock_quantity&lt;/span&gt;&lt;br style=&quot;font-size: 15px;&quot;&gt;&lt;/div&gt;&lt;div style=&quot;border-color: var(--border-color); font-size: 15px; line-height: 220%;&quot;&gt;&lt;span style=&quot;background-color: initial; font-size: 15px;&quot;&gt;+ unit_of_measurement&lt;/span&gt;&lt;/div&gt;&lt;/div&gt;&lt;/div&gt;" style="align=left;strokeColor=none;fillColor=none;spacingLeft=4;fontSize=15;verticalAlign=top;resizable=0;rotatable=0;part=1;html=1;" parent="Qnssa7Y3MquV65bTYyZ--24" vertex="1">
          <mxGeometry y="50" width="197" height="231" as="geometry" />
        </mxCell>
        <mxCell id="Qnssa7Y3MquV65bTYyZ--26" style="rounded=0;orthogonalLoop=1;jettySize=auto;html=1;entryX=1;entryY=0.25;entryDx=0;entryDy=0;fontSize=15;endSize=12;startSize=12;" parent="1" source="Qnssa7Y3MquV65bTYyZ--28" target="Qnssa7Y3MquV65bTYyZ--25" edge="1">
          <mxGeometry relative="1" as="geometry" />
        </mxCell>
        <mxCell id="Qnssa7Y3MquV65bTYyZ--27" style="rounded=0;orthogonalLoop=1;jettySize=auto;html=1;fontSize=15;endSize=12;startSize=12;" parent="1" source="Qnssa7Y3MquV65bTYyZ--28" target="Qnssa7Y3MquV65bTYyZ--7" edge="1">
          <mxGeometry relative="1" as="geometry" />
        </mxCell>
        <mxCell id="Qnssa7Y3MquV65bTYyZ--28" value="&lt;b style=&quot;font-size: 15px;&quot;&gt;&lt;font style=&quot;font-size: 15px;&quot;&gt;Menus_Items&lt;/font&gt;&lt;/b&gt;" style="swimlane;childLayout=stackLayout;horizontal=1;startSize=50;horizontalStack=0;rounded=1;fontSize=15;fontStyle=0;strokeWidth=2;resizeParent=0;resizeLast=1;shadow=0;dashed=0;align=center;arcSize=4;whiteSpace=wrap;html=1;" parent="1" vertex="1">
          <mxGeometry x="24" y="-285" width="214" height="161" as="geometry" />
        </mxCell>
        <mxCell id="Qnssa7Y3MquV65bTYyZ--29" value="&lt;div style=&quot;border-color: var(--border-color); font-size: 15px;&quot;&gt;&lt;div style=&quot;border-color: var(--border-color); font-size: 15px;&quot;&gt;&lt;div style=&quot;border-color: var(--border-color); font-size: 15px; line-height: 220%;&quot;&gt;&lt;div style=&quot;border-color: var(--border-color); font-size: 15px; line-height: 220%;&quot;&gt;&lt;u style=&quot;font-size: 15px;&quot;&gt;&lt;b style=&quot;font-size: 15px;&quot;&gt;+ menu_item_id &lt;/b&gt;&lt;/u&gt;(Primary Key)&lt;/div&gt;&lt;div style=&quot;border-color: var(--border-color); font-size: 15px; line-height: 220%;&quot;&gt;+ item_id (Foreign Key):&amp;nbsp;&lt;/div&gt;&lt;div style=&quot;border-color: var(--border-color); font-size: 15px; line-height: 220%;&quot;&gt;+ menu_id (Foreign Key)&lt;/div&gt;&lt;/div&gt;&lt;/div&gt;&lt;/div&gt;" style="align=left;strokeColor=none;fillColor=none;spacingLeft=4;fontSize=15;verticalAlign=top;resizable=0;rotatable=0;part=1;html=1;" parent="Qnssa7Y3MquV65bTYyZ--28" vertex="1">
          <mxGeometry y="50" width="214" height="111" as="geometry" />
        </mxCell>
        <mxCell id="Qnssa7Y3MquV65bTYyZ--30" style="rounded=0;orthogonalLoop=1;jettySize=auto;html=1;entryX=0;entryY=0.25;entryDx=0;entryDy=0;fontSize=15;endSize=12;startSize=12;" parent="1" source="Qnssa7Y3MquV65bTYyZ--31" target="Qnssa7Y3MquV65bTYyZ--25" edge="1">
          <mxGeometry relative="1" as="geometry" />
        </mxCell>
        <mxCell id="Qnssa7Y3MquV65bTYyZ--31" value="&lt;b style=&quot;font-size: 15px;&quot;&gt;&lt;font style=&quot;font-size: 15px;&quot;&gt;Inventory&amp;nbsp;Transactions &lt;/font&gt;&lt;/b&gt;" style="swimlane;childLayout=stackLayout;horizontal=1;startSize=50;horizontalStack=0;rounded=1;fontSize=15;fontStyle=0;strokeWidth=2;resizeParent=0;resizeLast=1;shadow=0;dashed=0;align=center;arcSize=4;whiteSpace=wrap;html=1;" parent="1" vertex="1">
          <mxGeometry x="-781" y="-360" width="246" height="221" as="geometry" />
        </mxCell>
        <mxCell id="Qnssa7Y3MquV65bTYyZ--32" value="&lt;div style=&quot;border-color: var(--border-color); font-size: 15px;&quot;&gt;&lt;div style=&quot;border-color: var(--border-color); font-size: 15px;&quot;&gt;&lt;div style=&quot;border-color: var(--border-color); font-size: 15px;&quot;&gt;&lt;div style=&quot;border-color: var(--border-color); font-size: 15px; line-height: 220%;&quot;&gt;&lt;div style=&quot;border-color: var(--border-color); font-size: 15px; line-height: 220%;&quot;&gt;&lt;u style=&quot;font-size: 15px;&quot;&gt;&lt;b style=&quot;font-size: 15px;&quot;&gt;+ transaction_id &lt;/b&gt;&lt;/u&gt;(Primary Key)&lt;/div&gt;&lt;div style=&quot;border-color: var(--border-color); font-size: 15px; line-height: 220%;&quot;&gt;&lt;u style=&quot;font-size: 15px;&quot;&gt;+ item_id &lt;/u&gt;(Foreign Key)&lt;/div&gt;&lt;div style=&quot;border-color: var(--border-color); font-size: 15px; line-height: 220%;&quot;&gt;+ transaction_type&lt;/div&gt;&lt;div style=&quot;border-color: var(--border-color); font-size: 15px; line-height: 220%;&quot;&gt;+ quantity&lt;/div&gt;&lt;div style=&quot;border-color: var(--border-color); font-size: 15px; line-height: 220%;&quot;&gt;+ transaction_timestamp&lt;/div&gt;&lt;/div&gt;&lt;/div&gt;&lt;/div&gt;&lt;/div&gt;" style="align=left;strokeColor=none;fillColor=none;spacingLeft=4;fontSize=15;verticalAlign=top;resizable=0;rotatable=0;part=1;html=1;" parent="Qnssa7Y3MquV65bTYyZ--31" vertex="1">
          <mxGeometry y="50" width="246" height="171" as="geometry" />
        </mxCell>
        <mxCell id="Qnssa7Y3MquV65bTYyZ--33" value="&lt;b style=&quot;font-size: 15px;&quot;&gt;&lt;font style=&quot;font-size: 15px;&quot;&gt;Sales Report&lt;/font&gt;&lt;/b&gt;" style="swimlane;childLayout=stackLayout;horizontal=1;startSize=50;horizontalStack=0;rounded=1;fontSize=15;fontStyle=0;strokeWidth=2;resizeParent=0;resizeLast=1;shadow=0;dashed=0;align=center;arcSize=4;whiteSpace=wrap;html=1;" parent="1" vertex="1">
          <mxGeometry x="-799" y="271" width="183" height="225" as="geometry" />
        </mxCell>
        <mxCell id="Qnssa7Y3MquV65bTYyZ--34" value="&lt;div style=&quot;border-color: var(--border-color); font-size: 15px;&quot;&gt;&lt;div style=&quot;border-color: var(--border-color); font-size: 15px;&quot;&gt;&lt;div style=&quot;border-color: var(--border-color); font-size: 15px;&quot;&gt;&lt;div style=&quot;border-color: var(--border-color); font-size: 15px; line-height: 220%;&quot;&gt;&lt;div style=&quot;border-color: var(--border-color); font-size: 15px; line-height: 220%;&quot;&gt;&lt;u style=&quot;font-size: 15px;&quot;&gt;&lt;b style=&quot;font-size: 15px;&quot;&gt;report_id &lt;/b&gt;&lt;/u&gt;(Primary Key)&lt;/div&gt;&lt;div style=&quot;border-color: var(--border-color); font-size: 15px; line-height: 220%;&quot;&gt;report_date&lt;/div&gt;&lt;div style=&quot;border-color: var(--border-color); font-size: 15px; line-height: 220%;&quot;&gt;total_sales&lt;/div&gt;&lt;div style=&quot;border-color: var(--border-color); font-size: 15px; line-height: 220%;&quot;&gt;total_orders&lt;/div&gt;&lt;div style=&quot;border-color: var(--border-color); font-size: 15px; line-height: 220%;&quot;&gt;total_payments&lt;/div&gt;&lt;/div&gt;&lt;/div&gt;&lt;/div&gt;&lt;/div&gt;" style="align=left;strokeColor=none;fillColor=none;spacingLeft=4;fontSize=15;verticalAlign=top;resizable=0;rotatable=0;part=1;html=1;" parent="Qnssa7Y3MquV65bTYyZ--33" vertex="1">
          <mxGeometry y="50" width="183" height="175" as="geometry" />
        </mxCell>
        <mxCell id="Qnssa7Y3MquV65bTYyZ--35" style="rounded=0;orthogonalLoop=1;jettySize=auto;html=1;fontSize=15;endSize=12;startSize=12;" parent="1" source="Qnssa7Y3MquV65bTYyZ--36" target="Qnssa7Y3MquV65bTYyZ--25" edge="1">
          <mxGeometry relative="1" as="geometry" />
        </mxCell>
        <mxCell id="Qnssa7Y3MquV65bTYyZ--36" value="&lt;b style=&quot;font-size: 15px;&quot;&gt;&lt;font style=&quot;font-size: 15px;&quot;&gt;Import Payments&lt;/font&gt;&lt;/b&gt;" style="swimlane;childLayout=stackLayout;horizontal=1;startSize=50;horizontalStack=0;rounded=1;fontSize=15;fontStyle=0;strokeWidth=2;resizeParent=0;resizeLast=1;shadow=0;dashed=0;align=center;arcSize=4;whiteSpace=wrap;html=1;" parent="1" vertex="1">
          <mxGeometry x="-853" y="-61" width="224" height="222" as="geometry" />
        </mxCell>
        <mxCell id="Qnssa7Y3MquV65bTYyZ--37" value="&lt;div style=&quot;border-color: var(--border-color); font-size: 15px;&quot;&gt;&lt;div style=&quot;border-color: var(--border-color); font-size: 15px;&quot;&gt;&lt;div style=&quot;border-color: var(--border-color); font-size: 15px;&quot;&gt;&lt;div style=&quot;border-color: var(--border-color); font-size: 15px;&quot;&gt;&lt;div style=&quot;border-color: var(--border-color); font-size: 15px; line-height: 220%;&quot;&gt;&lt;div style=&quot;border-color: var(--border-color); font-size: 15px; line-height: 220%;&quot;&gt;&lt;b style=&quot;font-size: 15px;&quot;&gt;&lt;u style=&quot;font-size: 15px;&quot;&gt;+ payment_id &lt;/u&gt;&lt;/b&gt;(Primary Key&lt;/div&gt;&lt;div style=&quot;border-color: var(--border-color); font-size: 15px; line-height: 220%;&quot;&gt;&lt;u style=&quot;font-size: 15px;&quot;&gt;+ item_id &lt;/u&gt;(Foreign Key)&lt;/div&gt;&lt;div style=&quot;border-color: var(--border-color); font-size: 15px; line-height: 220%;&quot;&gt;+ payment_amount&lt;/div&gt;&lt;div style=&quot;border-color: var(--border-color); font-size: 15px; line-height: 220%;&quot;&gt;+ payment_method&lt;/div&gt;&lt;div style=&quot;border-color: var(--border-color); font-size: 15px; line-height: 220%;&quot;&gt;+ payment_timestamp&lt;/div&gt;&lt;/div&gt;&lt;/div&gt;&lt;/div&gt;&lt;/div&gt;&lt;/div&gt;" style="align=left;strokeColor=none;fillColor=none;spacingLeft=4;fontSize=15;verticalAlign=top;resizable=0;rotatable=0;part=1;html=1;" parent="Qnssa7Y3MquV65bTYyZ--36" vertex="1">
          <mxGeometry y="50" width="224" height="172" as="geometry" />
        </mxCell>
      </root>
    </mxGraphModel>
  </diagram>
  <diagram id="tny6tPijf7qEXGwtPCir" name="simplier">
    <mxGraphModel dx="2704" dy="1750" grid="1" gridSize="10" guides="1" tooltips="1" connect="1" arrows="1" fold="1" page="1" pageScale="1" pageWidth="827" pageHeight="1169" math="0" shadow="0">
      <root>
        <mxCell id="0" />
        <mxCell id="1" parent="0" />
        <mxCell id="CURYErpFrxtPYp6rzmQI-1" style="rounded=0;orthogonalLoop=1;jettySize=auto;html=1;entryX=0.5;entryY=1;entryDx=0;entryDy=0;exitX=0.5;exitY=0;exitDx=0;exitDy=0;fontSize=14;" edge="1" parent="1" source="CURYErpFrxtPYp6rzmQI-16" target="CURYErpFrxtPYp6rzmQI-29">
          <mxGeometry relative="1" as="geometry">
            <mxPoint x="347.4074074074074" y="430" as="sourcePoint" />
            <mxPoint x="356.36363636363626" y="360" as="targetPoint" />
          </mxGeometry>
        </mxCell>
        <mxCell id="CURYErpFrxtPYp6rzmQI-2" style="rounded=0;orthogonalLoop=1;jettySize=auto;html=1;entryX=1;entryY=0.5;entryDx=0;entryDy=0;exitX=0;exitY=0.5;exitDx=0;exitDy=0;fontSize=14;" edge="1" parent="1" source="CURYErpFrxtPYp6rzmQI-17" target="CURYErpFrxtPYp6rzmQI-15">
          <mxGeometry relative="1" as="geometry">
            <mxPoint x="313.80645161290295" y="470" as="sourcePoint" />
          </mxGeometry>
        </mxCell>
        <mxCell id="CURYErpFrxtPYp6rzmQI-3" style="rounded=0;orthogonalLoop=1;jettySize=auto;html=1;exitX=0.5;exitY=0;exitDx=0;exitDy=0;entryX=0.5;entryY=1;entryDx=0;entryDy=0;fontSize=14;" edge="1" parent="1" source="CURYErpFrxtPYp6rzmQI-18" target="CURYErpFrxtPYp6rzmQI-15">
          <mxGeometry relative="1" as="geometry">
            <mxPoint x="493.6071428571431" y="542" as="sourcePoint" />
            <mxPoint x="373.3928571428569" y="470" as="targetPoint" />
          </mxGeometry>
        </mxCell>
        <mxCell id="CURYErpFrxtPYp6rzmQI-4" value="&lt;b style=&quot;&quot;&gt;&lt;font style=&quot;font-size: 18px;&quot;&gt;Users&lt;/font&gt;&lt;/b&gt;" style="swimlane;childLayout=stackLayout;horizontal=1;startSize=50;horizontalStack=0;rounded=1;fontSize=14;fontStyle=0;strokeWidth=2;resizeParent=0;resizeLast=1;shadow=0;dashed=0;align=center;arcSize=4;whiteSpace=wrap;html=1;" vertex="1" parent="1">
          <mxGeometry x="342" y="609" width="359" height="161" as="geometry" />
        </mxCell>
        <mxCell id="CURYErpFrxtPYp6rzmQI-5" value="&lt;div style=&quot;border-color: var(--border-color); font-size: 14px;&quot;&gt;+ &lt;u style=&quot;font-size: 14px;&quot;&gt;&lt;b style=&quot;font-size: 14px;&quot;&gt;user_id (Primary Key)&lt;/b&gt;&lt;/u&gt;&lt;/div&gt;&lt;div style=&quot;border-color: var(--border-color); font-size: 14px;&quot;&gt;+ username&lt;/div&gt;&lt;div style=&quot;border-color: var(--border-color); font-size: 14px;&quot;&gt;+ email&lt;/div&gt;&lt;div style=&quot;border-color: var(--border-color); font-size: 14px;&quot;&gt;+ password_hash&lt;/div&gt;&lt;div style=&quot;border-color: var(--border-color); font-size: 14px;&quot;&gt;+ role: User role (e.g., waiter, chef, manager, customer).&lt;/div&gt;" style="align=left;strokeColor=none;fillColor=none;spacingLeft=4;fontSize=14;verticalAlign=top;resizable=0;rotatable=0;part=1;html=1;" vertex="1" parent="CURYErpFrxtPYp6rzmQI-4">
          <mxGeometry y="50" width="359" height="111" as="geometry" />
        </mxCell>
        <mxCell id="CURYErpFrxtPYp6rzmQI-6" style="rounded=0;orthogonalLoop=1;jettySize=auto;html=1;entryX=0.5;entryY=1;entryDx=0;entryDy=0;fontSize=14;" edge="1" parent="1" source="CURYErpFrxtPYp6rzmQI-7" target="CURYErpFrxtPYp6rzmQI-12">
          <mxGeometry relative="1" as="geometry" />
        </mxCell>
        <mxCell id="CURYErpFrxtPYp6rzmQI-7" value="&lt;b style=&quot;&quot;&gt;&lt;font style=&quot;font-size: 18px;&quot;&gt;Menus&lt;/font&gt;&lt;/b&gt;" style="swimlane;childLayout=stackLayout;horizontal=1;startSize=50;horizontalStack=0;rounded=1;fontSize=14;fontStyle=0;strokeWidth=2;resizeParent=0;resizeLast=1;shadow=0;dashed=0;align=center;arcSize=4;whiteSpace=wrap;html=1;" vertex="1" parent="1">
          <mxGeometry x="389" y="35" width="437" height="126" as="geometry" />
        </mxCell>
        <mxCell id="CURYErpFrxtPYp6rzmQI-8" value="&lt;div style=&quot;border-color: var(--border-color); font-size: 14px;&quot;&gt;&lt;div style=&quot;border-color: var(--border-color); font-size: 14px;&quot;&gt;&lt;div style=&quot;border-color: var(--border-color); font-size: 14px;&quot;&gt;&lt;u style=&quot;font-size: 14px;&quot;&gt;&lt;b style=&quot;font-size: 14px;&quot;&gt;menu_id &lt;/b&gt;&lt;/u&gt;(Primary Key): Unique identifier for each menu item.&lt;/div&gt;&lt;div style=&quot;border-color: var(--border-color); font-size: 14px;&quot;&gt;name: Name of the menu item (e.g., fried chicken, shrimp soup, etc.).&lt;/div&gt;&lt;div style=&quot;border-color: var(--border-color); font-size: 14px;&quot;&gt;description: Description of the menu item.&lt;/div&gt;&lt;div style=&quot;border-color: var(--border-color); font-size: 14px;&quot;&gt;category_id: Ref&lt;/div&gt;&lt;/div&gt;&lt;/div&gt;" style="align=left;strokeColor=none;fillColor=none;spacingLeft=4;fontSize=14;verticalAlign=top;resizable=0;rotatable=0;part=1;html=1;" vertex="1" parent="CURYErpFrxtPYp6rzmQI-7">
          <mxGeometry y="50" width="437" height="76" as="geometry" />
        </mxCell>
        <mxCell id="CURYErpFrxtPYp6rzmQI-9" value="&lt;b style=&quot;&quot;&gt;&lt;font style=&quot;font-size: 18px;&quot;&gt;Tables&lt;/font&gt;&lt;/b&gt;" style="swimlane;childLayout=stackLayout;horizontal=1;startSize=50;horizontalStack=0;rounded=1;fontSize=14;fontStyle=0;strokeWidth=2;resizeParent=0;resizeLast=1;shadow=0;dashed=0;align=center;arcSize=4;whiteSpace=wrap;html=1;" vertex="1" parent="1">
          <mxGeometry x="-36" y="713" width="306" height="137" as="geometry" />
        </mxCell>
        <mxCell id="CURYErpFrxtPYp6rzmQI-10" value="&lt;div style=&quot;border-color: var(--border-color); font-size: 14px;&quot;&gt;&lt;div style=&quot;border-color: var(--border-color); font-size: 14px;&quot;&gt;&lt;span style=&quot;background-color: initial; font-size: 14px;&quot;&gt;&lt;u style=&quot;font-size: 14px;&quot;&gt;&lt;b style=&quot;font-size: 14px;&quot;&gt;+ table_id (Primary Key)&lt;/b&gt;&lt;/u&gt;&lt;/span&gt;&lt;/div&gt;&lt;div style=&quot;border-color: var(--border-color); font-size: 14px;&quot;&gt;&lt;div style=&quot;border-color: var(--border-color);&quot;&gt;+ table_number: Integer&lt;/div&gt;&lt;div style=&quot;border-color: var(--border-color);&quot;&gt;+ status: Enum (occupied, available, reserved)&lt;/div&gt;&lt;div style=&quot;border-color: var(--border-color);&quot;&gt;+ occupied_since: Timestamp (nullable)&lt;/div&gt;&lt;/div&gt;&lt;/div&gt;" style="align=left;strokeColor=none;fillColor=none;spacingLeft=4;fontSize=14;verticalAlign=top;resizable=0;rotatable=0;part=1;html=1;" vertex="1" parent="CURYErpFrxtPYp6rzmQI-9">
          <mxGeometry y="50" width="306" height="87" as="geometry" />
        </mxCell>
        <mxCell id="CURYErpFrxtPYp6rzmQI-11" value="&lt;b style=&quot;&quot;&gt;&lt;font style=&quot;font-size: 18px;&quot;&gt;Categories&lt;/font&gt;&lt;/b&gt;" style="swimlane;childLayout=stackLayout;horizontal=1;startSize=50;horizontalStack=0;rounded=1;fontSize=14;fontStyle=0;strokeWidth=2;resizeParent=0;resizeLast=1;shadow=0;dashed=0;align=center;arcSize=4;whiteSpace=wrap;html=1;" vertex="1" parent="1">
          <mxGeometry x="656" y="-193" width="186" height="99" as="geometry" />
        </mxCell>
        <mxCell id="CURYErpFrxtPYp6rzmQI-12" value="&lt;div style=&quot;border-color: var(--border-color); font-size: 14px;&quot;&gt;&lt;div style=&quot;border-color: var(--border-color); font-size: 14px;&quot;&gt;&lt;span style=&quot;background-color: initial; font-size: 14px;&quot;&gt;&lt;u style=&quot;font-size: 14px;&quot;&gt;&lt;b style=&quot;font-size: 14px;&quot;&gt;category_id (Primary Key)&lt;/b&gt;&lt;/u&gt;&lt;/span&gt;&lt;br style=&quot;font-size: 14px;&quot;&gt;&lt;/div&gt;&lt;div style=&quot;border-color: var(--border-color); font-size: 14px;&quot;&gt;name&lt;/div&gt;&lt;/div&gt;" style="align=left;strokeColor=none;fillColor=none;spacingLeft=4;fontSize=14;verticalAlign=top;resizable=0;rotatable=0;part=1;html=1;" vertex="1" parent="CURYErpFrxtPYp6rzmQI-11">
          <mxGeometry y="50" width="186" height="49" as="geometry" />
        </mxCell>
        <mxCell id="CURYErpFrxtPYp6rzmQI-13" style="rounded=0;orthogonalLoop=1;jettySize=auto;html=1;fontSize=14;" edge="1" parent="1" source="CURYErpFrxtPYp6rzmQI-14" target="CURYErpFrxtPYp6rzmQI-9">
          <mxGeometry relative="1" as="geometry" />
        </mxCell>
        <mxCell id="CURYErpFrxtPYp6rzmQI-14" value="&lt;b style=&quot;&quot;&gt;&lt;font style=&quot;font-size: 18px;&quot;&gt;Orders&lt;/font&gt;&lt;/b&gt;" style="swimlane;childLayout=stackLayout;horizontal=1;startSize=50;horizontalStack=0;rounded=1;fontSize=14;fontStyle=0;strokeWidth=2;resizeParent=0;resizeLast=1;shadow=0;dashed=0;align=center;arcSize=4;whiteSpace=wrap;html=1;" vertex="1" parent="1">
          <mxGeometry x="-426" y="274" width="416" height="186" as="geometry" />
        </mxCell>
        <mxCell id="CURYErpFrxtPYp6rzmQI-15" value="&lt;div style=&quot;border-color: var(--border-color); font-size: 14px;&quot;&gt;&lt;div style=&quot;border-color: var(--border-color); font-size: 14px;&quot;&gt;&lt;div style=&quot;border-color: var(--border-color); font-size: 14px;&quot;&gt;&lt;span style=&quot;background-color: initial; font-size: 14px;&quot;&gt;+ &lt;b style=&quot;font-size: 14px;&quot;&gt;order_id &lt;/b&gt;(Primary Key)&lt;/span&gt;&lt;/div&gt;&lt;div style=&quot;border-color: var(--border-color); font-size: 14px;&quot;&gt;+ &lt;u style=&quot;font-size: 14px;&quot;&gt;table_id &lt;/u&gt;(Foreign Key):&amp;nbsp;&lt;/div&gt;&lt;div style=&quot;border-color: var(--border-color); font-size: 14px;&quot;&gt;References the table_id of the table for which the order is placed.&lt;/div&gt;&lt;div style=&quot;border-color: var(--border-color); font-size: 14px;&quot;&gt;+ order_status:&amp;nbsp;&lt;/div&gt;&lt;div style=&quot;border-color: var(--border-color); font-size: 14px;&quot;&gt;Status of the order (e.g., in progress, delivered, paid).&lt;/div&gt;&lt;div style=&quot;border-color: var(--border-color); font-size: 14px;&quot;&gt;+ order_timestamp:&amp;nbsp;&lt;/div&gt;&lt;div style=&quot;border-color: var(--border-color); font-size: 14px;&quot;&gt;Timestamp when the order was placed.&lt;/div&gt;&lt;/div&gt;&lt;/div&gt;" style="align=left;strokeColor=none;fillColor=none;spacingLeft=4;fontSize=14;verticalAlign=top;resizable=0;rotatable=0;part=1;html=1;" vertex="1" parent="CURYErpFrxtPYp6rzmQI-14">
          <mxGeometry y="50" width="416" height="136" as="geometry" />
        </mxCell>
        <mxCell id="CURYErpFrxtPYp6rzmQI-16" value="&lt;b style=&quot;&quot;&gt;&lt;font style=&quot;font-size: 18px;&quot;&gt;Orders_Menus&lt;/font&gt;&lt;/b&gt;" style="swimlane;childLayout=stackLayout;horizontal=1;startSize=50;horizontalStack=0;rounded=1;fontSize=14;fontStyle=0;strokeWidth=2;resizeParent=0;resizeLast=1;shadow=0;dashed=0;align=center;arcSize=4;whiteSpace=wrap;html=1;" vertex="1" parent="1">
          <mxGeometry x="142" y="290" width="410" height="234" as="geometry" />
        </mxCell>
        <mxCell id="CURYErpFrxtPYp6rzmQI-17" value="&lt;div style=&quot;border-color: var(--border-color); font-size: 14px;&quot;&gt;&lt;div style=&quot;border-color: var(--border-color); font-size: 14px;&quot;&gt;&lt;div style=&quot;border-color: var(--border-color); font-size: 14px;&quot;&gt;&lt;div style=&quot;border-color: var(--border-color); font-size: 14px;&quot;&gt;&lt;span style=&quot;background-color: initial; font-size: 14px;&quot;&gt;&lt;b style=&quot;font-size: 14px;&quot;&gt;order_item_id (Primary Key)&lt;/b&gt;&lt;/span&gt;&lt;br style=&quot;font-size: 14px;&quot;&gt;&lt;/div&gt;&lt;div style=&quot;border-color: var(--border-color); font-size: 14px;&quot;&gt;&lt;u style=&quot;font-size: 14px;&quot;&gt;order_id &lt;/u&gt;(Foreign Key):&amp;nbsp;&lt;/div&gt;&lt;div style=&quot;border-color: var(--border-color); font-size: 14px;&quot;&gt;References the order_id of the order to which the item belongs.&lt;/div&gt;&lt;div style=&quot;border-color: var(--border-color); font-size: 14px;&quot;&gt;&lt;u style=&quot;font-size: 14px;&quot;&gt;menu_item_id &lt;/u&gt;(Foreign Key):&amp;nbsp;&lt;/div&gt;&lt;div style=&quot;border-color: var(--border-color); font-size: 14px;&quot;&gt;References the item_id of the menu item in the order.&lt;/div&gt;&lt;div style=&quot;border-color: var(--border-color); font-size: 14px;&quot;&gt;quantity:&amp;nbsp;&lt;/div&gt;&lt;div style=&quot;border-color: var(--border-color); font-size: 14px;&quot;&gt;Quantity of the menu item ordered.&lt;/div&gt;&lt;div style=&quot;border-color: var(--border-color); font-size: 14px;&quot;&gt;notes:&amp;nbsp;&lt;/div&gt;&lt;div style=&quot;border-color: var(--border-color); font-size: 14px;&quot;&gt;Additional notes or special requests for the item.&lt;/div&gt;&lt;/div&gt;&lt;/div&gt;&lt;/div&gt;" style="align=left;strokeColor=none;fillColor=none;spacingLeft=4;fontSize=14;verticalAlign=top;resizable=0;rotatable=0;part=1;html=1;" vertex="1" parent="CURYErpFrxtPYp6rzmQI-16">
          <mxGeometry y="50" width="410" height="184" as="geometry" />
        </mxCell>
        <mxCell id="CURYErpFrxtPYp6rzmQI-18" value="&lt;b style=&quot;&quot;&gt;&lt;font style=&quot;font-size: 18px;&quot;&gt;Payments&lt;/font&gt;&lt;/b&gt;" style="swimlane;childLayout=stackLayout;horizontal=1;startSize=50;horizontalStack=0;rounded=1;fontSize=14;fontStyle=0;strokeWidth=2;resizeParent=0;resizeLast=1;shadow=0;dashed=0;align=center;arcSize=4;whiteSpace=wrap;html=1;" vertex="1" parent="1">
          <mxGeometry x="-646" y="683" width="433" height="225" as="geometry" />
        </mxCell>
        <mxCell id="CURYErpFrxtPYp6rzmQI-19" value="&lt;div style=&quot;border-color: var(--border-color); font-size: 14px;&quot;&gt;&lt;div style=&quot;border-color: var(--border-color); font-size: 14px;&quot;&gt;&lt;div style=&quot;border-color: var(--border-color); font-size: 14px;&quot;&gt;&lt;div style=&quot;border-color: var(--border-color); font-size: 14px;&quot;&gt;&lt;div style=&quot;border-color: var(--border-color); font-size: 14px;&quot;&gt;+ &lt;u style=&quot;font-size: 14px;&quot;&gt;&lt;b style=&quot;font-size: 14px;&quot;&gt;payment_id &lt;/b&gt;&lt;/u&gt;(Primary Key)&lt;/div&gt;&lt;div style=&quot;border-color: var(--border-color); font-size: 14px;&quot;&gt;+ &lt;u style=&quot;font-size: 14px;&quot;&gt;order_id &lt;/u&gt;(Foreign Key):&amp;nbsp;&lt;/div&gt;&lt;div style=&quot;border-color: var(--border-color); font-size: 14px;&quot;&gt;References the order_id of the order for which the payment is made.&lt;/div&gt;&lt;div style=&quot;border-color: var(--border-color); font-size: 14px;&quot;&gt;+ payment_amount:&amp;nbsp;&lt;/div&gt;&lt;div style=&quot;border-color: var(--border-color); font-size: 14px;&quot;&gt;Amount paid for the order.&lt;/div&gt;&lt;div style=&quot;border-color: var(--border-color); font-size: 14px;&quot;&gt;+ payment_method:&amp;nbsp;&lt;/div&gt;&lt;div style=&quot;border-color: var(--border-color); font-size: 14px;&quot;&gt;Method of payment (e.g., cash, credit card, mobile payment).&lt;/div&gt;&lt;div style=&quot;border-color: var(--border-color); font-size: 14px;&quot;&gt;+ payment_timestamp:&amp;nbsp;&lt;/div&gt;&lt;div style=&quot;border-color: var(--border-color); font-size: 14px;&quot;&gt;Timestamp when the payment was made.&lt;/div&gt;&lt;/div&gt;&lt;/div&gt;&lt;/div&gt;&lt;/div&gt;" style="align=left;strokeColor=none;fillColor=none;spacingLeft=4;fontSize=14;verticalAlign=top;resizable=0;rotatable=0;part=1;html=1;rounded=0;" vertex="1" parent="CURYErpFrxtPYp6rzmQI-18">
          <mxGeometry y="50" width="433" height="175" as="geometry" />
        </mxCell>
        <mxCell id="CURYErpFrxtPYp6rzmQI-20" style="rounded=0;orthogonalLoop=1;jettySize=auto;html=1;entryX=0.75;entryY=0;entryDx=0;entryDy=0;fontSize=14;" edge="1" parent="1" source="CURYErpFrxtPYp6rzmQI-22" target="CURYErpFrxtPYp6rzmQI-4">
          <mxGeometry relative="1" as="geometry" />
        </mxCell>
        <mxCell id="CURYErpFrxtPYp6rzmQI-21" style="edgeStyle=orthogonalEdgeStyle;rounded=0;orthogonalLoop=1;jettySize=auto;html=1;entryX=1;entryY=0.5;entryDx=0;entryDy=0;exitX=0.5;exitY=1;exitDx=0;exitDy=0;fontSize=14;" edge="1" parent="1" source="CURYErpFrxtPYp6rzmQI-23" target="CURYErpFrxtPYp6rzmQI-10">
          <mxGeometry relative="1" as="geometry" />
        </mxCell>
        <mxCell id="CURYErpFrxtPYp6rzmQI-22" value="&lt;b style=&quot;&quot;&gt;&lt;font style=&quot;font-size: 18px;&quot;&gt;Reservation&lt;/font&gt;&lt;/b&gt;" style="swimlane;childLayout=stackLayout;horizontal=1;startSize=50;horizontalStack=0;rounded=1;fontSize=14;fontStyle=0;strokeWidth=2;resizeParent=0;resizeLast=1;shadow=0;dashed=0;align=center;arcSize=4;whiteSpace=wrap;html=1;" vertex="1" parent="1">
          <mxGeometry x="617" y="337" width="438" height="221" as="geometry" />
        </mxCell>
        <mxCell id="CURYErpFrxtPYp6rzmQI-23" value="&lt;div style=&quot;border-color: var(--border-color); font-size: 14px;&quot;&gt;&lt;div style=&quot;border-color: var(--border-color); font-size: 14px;&quot;&gt;&lt;div style=&quot;border-color: var(--border-color); font-size: 14px;&quot;&gt;&lt;div style=&quot;border-color: var(--border-color); font-size: 14px;&quot;&gt;&lt;div style=&quot;border-color: var(--border-color); font-size: 14px;&quot;&gt;+ &lt;u style=&quot;font-size: 14px;&quot;&gt;&lt;b style=&quot;font-size: 14px;&quot;&gt;reservation_id &lt;/b&gt;&lt;/u&gt;(Primary Key)&lt;/div&gt;&lt;div style=&quot;border-color: var(--border-color); font-size: 14px;&quot;&gt;+ &lt;u style=&quot;font-size: 14px;&quot;&gt;customer_id &lt;/u&gt;(Foreign Key):&amp;nbsp;&lt;/div&gt;&lt;div style=&quot;border-color: var(--border-color); font-size: 14px;&quot;&gt;References the user_id of the customer who made the reservation.&lt;/div&gt;&lt;div style=&quot;border-color: var(--border-color); font-size: 14px;&quot;&gt;+ &lt;u style=&quot;font-size: 14px;&quot;&gt;table_id &lt;/u&gt;(Foreign Key):&amp;nbsp;&lt;/div&gt;&lt;div style=&quot;border-color: var(--border-color); font-size: 14px;&quot;&gt;References the table_id of the table reserved.&lt;/div&gt;&lt;div style=&quot;border-color: var(--border-color); font-size: 14px;&quot;&gt;+ reservation_datetime:&amp;nbsp;&lt;/div&gt;&lt;div style=&quot;border-color: var(--border-color); font-size: 14px;&quot;&gt;Date and time of the reservation.&lt;/div&gt;&lt;div style=&quot;border-color: var(--border-color); font-size: 14px;&quot;&gt;+ status:&amp;nbsp;&lt;/div&gt;&lt;div style=&quot;border-color: var(--border-color); font-size: 14px;&quot;&gt;Reservation status (e.g., confirmed, canceled).&lt;/div&gt;&lt;/div&gt;&lt;/div&gt;&lt;/div&gt;&lt;/div&gt;" style="align=left;strokeColor=none;fillColor=none;spacingLeft=4;fontSize=14;verticalAlign=top;resizable=0;rotatable=0;part=1;html=1;" vertex="1" parent="CURYErpFrxtPYp6rzmQI-22">
          <mxGeometry y="50" width="438" height="171" as="geometry" />
        </mxCell>
        <mxCell id="CURYErpFrxtPYp6rzmQI-24" value="&lt;b style=&quot;&quot;&gt;&lt;font style=&quot;font-size: 18px;&quot;&gt;items&lt;/font&gt;&lt;/b&gt;" style="swimlane;childLayout=stackLayout;horizontal=1;startSize=50;horizontalStack=0;rounded=1;fontSize=14;fontStyle=0;strokeWidth=2;resizeParent=0;resizeLast=1;shadow=0;dashed=0;align=center;arcSize=4;whiteSpace=wrap;html=1;" vertex="1" parent="1">
          <mxGeometry x="-363" y="-148" width="372" height="276" as="geometry" />
        </mxCell>
        <mxCell id="CURYErpFrxtPYp6rzmQI-25" value="&lt;div style=&quot;border-color: var(--border-color); font-size: 14px;&quot;&gt;&lt;div style=&quot;border-color: var(--border-color); font-size: 14px;&quot;&gt;&lt;div style=&quot;border-color: var(--border-color); font-size: 14px;&quot;&gt;+ &lt;u style=&quot;font-size: 14px;&quot;&gt;&lt;b style=&quot;font-size: 14px;&quot;&gt;item_id &lt;/b&gt;&lt;/u&gt;(Primary Key): Unique identifier for each item.&lt;/div&gt;&lt;div style=&quot;border-color: var(--border-color); font-size: 14px;&quot;&gt;+ name: Name of the item&amp;nbsp;&lt;/div&gt;&lt;div style=&quot;border-color: var(--border-color); font-size: 14px;&quot;&gt;(e.g., ingredient name, snack name, drink name).&lt;/div&gt;&lt;div style=&quot;border-color: var(--border-color); font-size: 14px;&quot;&gt;+ description:&amp;nbsp;&lt;/div&gt;&lt;div style=&quot;border-color: var(--border-color); font-size: 14px;&quot;&gt;Description of the item.&lt;/div&gt;&lt;div style=&quot;border-color: var(--border-color); font-size: 14px;&quot;&gt;+ price&lt;/div&gt;&lt;div style=&quot;border-color: var(--border-color); font-size: 14px;&quot;&gt;+ availability&lt;/div&gt;&lt;div style=&quot;border-color: var(--border-color); font-size: 14px;&quot;&gt;Availability status of the item (e.g., available, out of stock).&lt;/div&gt;&lt;div style=&quot;border-color: var(--border-color); font-size: 14px;&quot;&gt;+ stock_quantity&lt;/div&gt;&lt;div style=&quot;border-color: var(--border-color); font-size: 14px;&quot;&gt;Current stock quantity of the item.&lt;/div&gt;&lt;div style=&quot;border-color: var(--border-color); font-size: 14px;&quot;&gt;+ unit_of_measurement&lt;/div&gt;&lt;div style=&quot;border-color: var(--border-color); font-size: 14px;&quot;&gt;Measurement unit for the item (e.g., grams, kilograms).&lt;/div&gt;&lt;/div&gt;&lt;/div&gt;" style="align=left;strokeColor=none;fillColor=none;spacingLeft=4;fontSize=14;verticalAlign=top;resizable=0;rotatable=0;part=1;html=1;" vertex="1" parent="CURYErpFrxtPYp6rzmQI-24">
          <mxGeometry y="50" width="372" height="226" as="geometry" />
        </mxCell>
        <mxCell id="CURYErpFrxtPYp6rzmQI-26" style="rounded=0;orthogonalLoop=1;jettySize=auto;html=1;entryX=1;entryY=0.25;entryDx=0;entryDy=0;fontSize=14;" edge="1" parent="1" source="CURYErpFrxtPYp6rzmQI-28" target="CURYErpFrxtPYp6rzmQI-25">
          <mxGeometry relative="1" as="geometry" />
        </mxCell>
        <mxCell id="CURYErpFrxtPYp6rzmQI-27" style="rounded=0;orthogonalLoop=1;jettySize=auto;html=1;fontSize=14;" edge="1" parent="1" source="CURYErpFrxtPYp6rzmQI-28" target="CURYErpFrxtPYp6rzmQI-7">
          <mxGeometry relative="1" as="geometry" />
        </mxCell>
        <mxCell id="CURYErpFrxtPYp6rzmQI-28" value="&lt;b style=&quot;&quot;&gt;&lt;font style=&quot;font-size: 18px;&quot;&gt;Menus_Items&lt;/font&gt;&lt;/b&gt;" style="swimlane;childLayout=stackLayout;horizontal=1;startSize=50;horizontalStack=0;rounded=1;fontSize=14;fontStyle=0;strokeWidth=2;resizeParent=0;resizeLast=1;shadow=0;dashed=0;align=center;arcSize=4;whiteSpace=wrap;html=1;" vertex="1" parent="1">
          <mxGeometry x="107" y="-298" width="418" height="172" as="geometry" />
        </mxCell>
        <mxCell id="CURYErpFrxtPYp6rzmQI-29" value="&lt;div style=&quot;border-color: var(--border-color); font-size: 14px;&quot;&gt;&lt;div style=&quot;border-color: var(--border-color); font-size: 14px;&quot;&gt;&lt;div style=&quot;border-color: var(--border-color); font-size: 14px;&quot;&gt;&lt;div style=&quot;border-color: var(--border-color); font-size: 14px;&quot;&gt;&lt;u style=&quot;font-size: 14px;&quot;&gt;&lt;b style=&quot;font-size: 14px;&quot;&gt;+ menu_item_id &lt;/b&gt;&lt;/u&gt;(Primary Key)&lt;/div&gt;&lt;div style=&quot;border-color: var(--border-color); font-size: 14px;&quot;&gt;item_id (Foreign Key):&amp;nbsp;&lt;/div&gt;&lt;div style=&quot;border-color: var(--border-color); font-size: 14px;&quot;&gt;+ References the item_id of the item in the &quot;Items&quot; table.&lt;/div&gt;&lt;div style=&quot;border-color: var(--border-color); font-size: 14px;&quot;&gt;menu_id (Foreign Key):&amp;nbsp;&lt;/div&gt;&lt;div style=&quot;border-color: var(--border-color); font-size: 14px;&quot;&gt;+ References the menu_id of the menu item in the &quot;Menu&quot; table.&lt;/div&gt;&lt;/div&gt;&lt;/div&gt;&lt;/div&gt;" style="align=left;strokeColor=none;fillColor=none;spacingLeft=4;fontSize=14;verticalAlign=top;resizable=0;rotatable=0;part=1;html=1;" vertex="1" parent="CURYErpFrxtPYp6rzmQI-28">
          <mxGeometry y="50" width="418" height="122" as="geometry" />
        </mxCell>
        <mxCell id="CURYErpFrxtPYp6rzmQI-30" style="rounded=0;orthogonalLoop=1;jettySize=auto;html=1;entryX=0;entryY=0.25;entryDx=0;entryDy=0;fontSize=14;" edge="1" parent="1" source="CURYErpFrxtPYp6rzmQI-31" target="CURYErpFrxtPYp6rzmQI-25">
          <mxGeometry relative="1" as="geometry" />
        </mxCell>
        <mxCell id="CURYErpFrxtPYp6rzmQI-31" value="&lt;b style=&quot;&quot;&gt;&lt;font style=&quot;font-size: 18px;&quot;&gt;Inventory&amp;nbsp;Transactions &lt;/font&gt;&lt;/b&gt;" style="swimlane;childLayout=stackLayout;horizontal=1;startSize=50;horizontalStack=0;rounded=1;fontSize=14;fontStyle=0;strokeWidth=2;resizeParent=0;resizeLast=1;shadow=0;dashed=0;align=center;arcSize=4;whiteSpace=wrap;html=1;" vertex="1" parent="1">
          <mxGeometry x="-975" y="-351" width="534" height="174" as="geometry" />
        </mxCell>
        <mxCell id="CURYErpFrxtPYp6rzmQI-32" value="&lt;div style=&quot;border-color: var(--border-color); font-size: 14px;&quot;&gt;&lt;div style=&quot;border-color: var(--border-color); font-size: 14px;&quot;&gt;&lt;div style=&quot;border-color: var(--border-color); font-size: 14px;&quot;&gt;&lt;div style=&quot;border-color: var(--border-color); font-size: 14px; line-height: 170%;&quot;&gt;&lt;div style=&quot;border-color: var(--border-color); font-size: 14px; line-height: 170%;&quot;&gt;&lt;u style=&quot;font-size: 14px;&quot;&gt;&lt;b style=&quot;font-size: 14px;&quot;&gt;+ transaction_id &lt;/b&gt;&lt;/u&gt;(Primary Key): Unique identifier for each inventory transaction.&lt;/div&gt;&lt;div style=&quot;border-color: var(--border-color); font-size: 14px; line-height: 170%;&quot;&gt;&lt;u style=&quot;font-size: 14px;&quot;&gt;+ item_id &lt;/u&gt;(Foreign Key): References the item_id of the item involved in the transaction.&lt;/div&gt;&lt;div style=&quot;border-color: var(--border-color); font-size: 14px; line-height: 170%;&quot;&gt;+ transaction_type: Type of transaction (e.g., used, restocked, sold).&lt;/div&gt;&lt;div style=&quot;border-color: var(--border-color); font-size: 14px; line-height: 170%;&quot;&gt;+ quantity: Quantity of the item involved in the transaction.&lt;/div&gt;&lt;div style=&quot;border-color: var(--border-color); font-size: 14px; line-height: 170%;&quot;&gt;+ transaction_timestamp: Timestamp of the inventory transaction.&lt;/div&gt;&lt;/div&gt;&lt;/div&gt;&lt;/div&gt;&lt;/div&gt;" style="align=left;strokeColor=none;fillColor=none;spacingLeft=4;fontSize=14;verticalAlign=top;resizable=0;rotatable=0;part=1;html=1;" vertex="1" parent="CURYErpFrxtPYp6rzmQI-31">
          <mxGeometry y="50" width="534" height="124" as="geometry" />
        </mxCell>
        <mxCell id="CURYErpFrxtPYp6rzmQI-33" value="&lt;b style=&quot;&quot;&gt;&lt;font style=&quot;font-size: 18px;&quot;&gt;Sales Report&lt;/font&gt;&lt;/b&gt;" style="swimlane;childLayout=stackLayout;horizontal=1;startSize=50;horizontalStack=0;rounded=1;fontSize=14;fontStyle=0;strokeWidth=2;resizeParent=0;resizeLast=1;shadow=0;dashed=0;align=center;arcSize=4;whiteSpace=wrap;html=1;" vertex="1" parent="1">
          <mxGeometry x="-1154" y="252" width="448" height="166" as="geometry" />
        </mxCell>
        <mxCell id="CURYErpFrxtPYp6rzmQI-34" value="&lt;div style=&quot;border-color: var(--border-color); font-size: 14px;&quot;&gt;&lt;div style=&quot;border-color: var(--border-color); font-size: 14px;&quot;&gt;&lt;div style=&quot;border-color: var(--border-color); font-size: 14px;&quot;&gt;&lt;div style=&quot;border-color: var(--border-color); font-size: 14px;&quot;&gt;&lt;div style=&quot;border-color: var(--border-color); font-size: 14px;&quot;&gt;&lt;u style=&quot;font-size: 14px;&quot;&gt;&lt;b style=&quot;font-size: 14px;&quot;&gt;report_id &lt;/b&gt;&lt;/u&gt;(Primary Key): Unique identifier for each sales report.&lt;/div&gt;&lt;div style=&quot;border-color: var(--border-color); font-size: 14px;&quot;&gt;report_date: Date of the sales report.&lt;/div&gt;&lt;div style=&quot;border-color: var(--border-color); font-size: 14px;&quot;&gt;total_sales: Total sales revenue for the specific date.&lt;/div&gt;&lt;div style=&quot;border-color: var(--border-color); font-size: 14px;&quot;&gt;total_orders: Total number of orders received for the specific date.&lt;/div&gt;&lt;div style=&quot;border-color: var(--border-color); font-size: 14px;&quot;&gt;total_payments: Total payment amount received for the specific date.&lt;/div&gt;&lt;/div&gt;&lt;/div&gt;&lt;/div&gt;&lt;/div&gt;" style="align=left;strokeColor=none;fillColor=none;spacingLeft=4;fontSize=14;verticalAlign=top;resizable=0;rotatable=0;part=1;html=1;" vertex="1" parent="CURYErpFrxtPYp6rzmQI-33">
          <mxGeometry y="50" width="448" height="116" as="geometry" />
        </mxCell>
        <mxCell id="CURYErpFrxtPYp6rzmQI-35" style="rounded=0;orthogonalLoop=1;jettySize=auto;html=1;fontSize=14;" edge="1" parent="1" source="CURYErpFrxtPYp6rzmQI-36" target="CURYErpFrxtPYp6rzmQI-25">
          <mxGeometry relative="1" as="geometry" />
        </mxCell>
        <mxCell id="CURYErpFrxtPYp6rzmQI-36" value="&lt;b style=&quot;&quot;&gt;&lt;font style=&quot;font-size: 18px;&quot;&gt;Import Payments&lt;/font&gt;&lt;/b&gt;" style="swimlane;childLayout=stackLayout;horizontal=1;startSize=50;horizontalStack=0;rounded=1;fontSize=14;fontStyle=0;strokeWidth=2;resizeParent=0;resizeLast=1;shadow=0;dashed=0;align=center;arcSize=4;whiteSpace=wrap;html=1;" vertex="1" parent="1">
          <mxGeometry x="-1047" y="-52" width="499" height="158" as="geometry" />
        </mxCell>
        <mxCell id="CURYErpFrxtPYp6rzmQI-37" value="&lt;div style=&quot;border-color: var(--border-color); font-size: 14px;&quot;&gt;&lt;div style=&quot;border-color: var(--border-color); font-size: 14px;&quot;&gt;&lt;div style=&quot;border-color: var(--border-color); font-size: 14px;&quot;&gt;&lt;div style=&quot;border-color: var(--border-color); font-size: 14px;&quot;&gt;&lt;div style=&quot;border-color: var(--border-color); font-size: 14px;&quot;&gt;&lt;div style=&quot;border-color: var(--border-color); font-size: 14px;&quot;&gt;&lt;b style=&quot;font-size: 14px;&quot;&gt;&lt;u style=&quot;font-size: 14px;&quot;&gt;+ payment_id &lt;/u&gt;&lt;/b&gt;(Primary Key): Unique identifier for each import payment.&lt;/div&gt;&lt;div style=&quot;border-color: var(--border-color); font-size: 14px;&quot;&gt;&lt;u style=&quot;font-size: 14px;&quot;&gt;+ item_id &lt;/u&gt;(Foreign Key): References the item_id of the item in the &quot;Items&quot; table.&lt;/div&gt;&lt;div style=&quot;border-color: var(--border-color); font-size: 14px;&quot;&gt;+ payment_amount: Amount paid for the import.&lt;/div&gt;&lt;div style=&quot;border-color: var(--border-color); font-size: 14px;&quot;&gt;+ payment_method: Method of payment for the import (e.g., bank transfer, cash).&lt;/div&gt;&lt;div style=&quot;border-color: var(--border-color); font-size: 14px;&quot;&gt;+ payment_timestamp: Timestamp when the payment was made.&lt;/div&gt;&lt;/div&gt;&lt;/div&gt;&lt;/div&gt;&lt;/div&gt;&lt;/div&gt;" style="align=left;strokeColor=none;fillColor=none;spacingLeft=4;fontSize=14;verticalAlign=top;resizable=0;rotatable=0;part=1;html=1;" vertex="1" parent="CURYErpFrxtPYp6rzmQI-36">
          <mxGeometry y="50" width="499" height="108" as="geometry" />
        </mxCell>
      </root>
    </mxGraphModel>
  </diagram>
</mxfile>
